<svg width="282" height="148" viewBox="0 0 282 148" fill="none" xmlns="http://www.w3.org/2000/svg">
<g clip-path="url(#clip0_52_171)">
<path d="M140.82 7.24967C136.243 7.24967 131.685 5.51812 127.051 2.05502L128.19 0.532777C136.812 7.00231 144.865 6.98328 153.525 0.49472L154.664 2.01696C150.011 5.49909 145.415 7.24967 140.82 7.24967Z" fill="white"/>
<path d="M111.573 21.4255C109.845 15.3746 108.535 9.01927 107.528 1.99793L109.408 1.73154C110.396 8.67677 111.706 14.956 113.396 20.9118L111.573 21.4255Z" fill="white"/>
<path d="M169.895 21.4255L168.072 20.9118C169.762 14.956 171.073 8.67677 172.06 1.73154L173.94 1.99793C172.934 9.0383 171.604 15.3937 169.895 21.4255Z" fill="white"/>
<path d="M53.8969 146.326C53.8589 146.078 53.8209 145.831 53.7829 145.564H53.7259C53.7259 145.374 53.7259 145.184 53.7069 144.994C52.7954 138.448 52.1117 132.454 51.6179 126.727L53.498 126.479C54.5805 132.302 55.3022 138.467 55.6061 144.822C55.663 145.222 55.72 145.641 55.777 146.059L53.8969 146.326Z" fill="white"/>
<path d="M1.27253 146.097C1.13959 144.118 2.27906 142.292 3.38055 140.503C4.65296 138.448 5.75445 136.678 4.91883 135.023L4.82388 134.737C4.44405 132.264 4.04524 129.79 3.64642 127.317C0.0950742 105.32 -3.57022 82.5436 6.79896 60.0144C18.2696 35.0877 44.4015 32.9185 67.4758 30.9967L68.0645 30.9396C77.3512 22.9859 86.8278 16.7637 95.9815 10.7318C99.9507 8.12497 104.053 5.42299 108.117 2.60684L109.199 4.16714C105.116 7.00232 100.995 9.7043 97.026 12.3302C87.4165 18.6665 78.3387 24.6413 69.052 32.595L68.8241 32.8043L67.6277 32.8995C45.0852 34.7832 19.542 36.9144 8.52716 60.8136C-1.61413 82.81 2.01318 105.301 5.52655 127.05C5.92537 129.486 6.30519 131.902 6.68501 134.338C7.86247 136.888 6.34317 139.361 4.9948 141.53C4.00726 143.11 3.07669 144.613 3.17164 145.983L1.27253 146.097Z" fill="white"/>
<path d="M137.078 49.6632C136.433 41.5382 124.373 40.2633 124.259 40.2633L124.449 38.3605C125.019 38.4176 138.199 39.8066 138.977 49.5109L137.078 49.6632Z" fill="white"/>
<path d="M146.175 49.6632L144.276 49.5109C145.055 39.8066 158.234 38.4176 158.804 38.3605L158.994 40.2633C158.88 40.2633 146.821 41.5572 146.175 49.6632Z" fill="white"/>
<path d="M29.1136 109.316C29.1136 109.316 50.1558 48.7498 88.48 42.2613C88.48 42.2613 74.0847 30.9015 48.1807 41.7285C22.2767 52.5364 24.4228 108.612 24.4228 108.612L29.0946 109.335L29.1136 109.316Z" fill="#39FF14"/>
<path d="M47.8197 95.5588C47.8197 95.5588 88.8406 59.6909 135.445 57.5217C135.445 57.5217 111.877 30.1214 76.2495 51.0332C40.622 71.945 47.8197 95.5588 47.8197 95.5588Z" fill="white"/>
<path d="M135.806 60.7184C135.806 60.7184 141.56 90.288 138.692 107.413C138.692 107.413 78.7753 90.6495 50.8962 96.9668C50.8962 96.9668 85.802 66.503 135.825 60.7375L135.806 60.7184Z" fill="white"/>
<path d="M47.7629 100.791C47.7629 100.791 55.6822 134.319 80.5037 134.319C105.325 134.319 136.509 121.094 136.509 121.094L138.541 110.515C138.541 110.515 73.287 92.2479 47.7439 100.772L47.7629 100.791Z" fill="white"/>
<path d="M34.8109 40.7961C43.0341 36.8954 51.846 34.9545 59.6893 35.0496C59.6893 35.0496 11.0529 36.6099 21.4981 115.253C21.1752 115.9 12.3823 133.177 12.3823 133.177C12.3823 133.177 0.930615 104.997 5.71639 77.1206C8.73599 59.6148 20.9283 47.3988 34.8109 40.8151V40.7961Z" fill="#39FF14"/>
<path d="M77.237 30.0643L112.978 34.0221C112.978 34.0221 105.781 16.8398 105.534 9.62817L77.218 30.0643H77.237Z" fill="white"/>
<path d="M118.505 0H111.744C113.681 10.7508 117.441 26.5822 123.766 34.2695C123.766 34.2695 133.85 37.6945 136.357 40.5868C136.357 40.5868 130.602 18.9519 126.633 11.9306C124.943 8.92414 121.677 4.31936 118.486 0.019028L118.505 0Z" fill="white"/>
<path d="M50.3836 148C49.643 127.963 46.2816 106.804 41.2679 90.8779C41.2679 90.8779 29.4554 114.377 22.5806 148H50.3836Z" fill="white"/>
<path d="M17.5478 148C21.1372 129.276 26.9105 116.889 26.9105 116.889C26.9105 116.889 16.8641 131.617 9.8374 148H17.5478Z" fill="white"/>
<path d="M64.1903 148H95.2218C95.9055 142.177 96.5322 137.325 96.5322 137.325C96.5322 137.325 79.4972 139.076 73.382 137.991C67.2668 136.907 59.4045 131.084 58.208 134.319C57.0116 137.573 58.4549 141.588 62.7659 146.63C63.1078 147.03 63.6015 147.486 64.1903 148Z" fill="white"/>
<path d="M137.686 148C138.787 142.196 140.497 131.008 137.686 129.143C133.85 126.613 109.142 131.179 103.749 137.078C101.584 139.456 100.14 143.719 99.1719 148H137.705H137.686Z" fill="white"/>
<path d="M252.393 109.316C252.393 109.316 231.351 48.7498 193.026 42.2613C193.026 42.2613 207.422 30.9015 233.326 41.7285C259.23 52.5554 257.084 108.612 257.084 108.612L252.412 109.335L252.393 109.316Z" fill="#39FF14"/>
<path d="M233.686 95.5588C233.686 95.5588 192.665 59.6909 146.061 57.5217C146.061 57.5217 169.629 30.1214 205.257 51.0332C240.884 71.945 233.686 95.5588 233.686 95.5588Z" fill="white"/>
<path d="M145.7 60.7184C145.7 60.7184 139.946 90.288 142.814 107.413C142.814 107.413 202.731 90.6495 230.61 96.9668C230.61 96.9668 195.704 66.503 145.681 60.7375L145.7 60.7184Z" fill="white"/>
<path d="M233.743 100.791C233.743 100.791 225.824 134.319 201.003 134.319C176.181 134.319 144.998 121.094 144.998 121.094L142.966 110.515C142.966 110.515 208.219 92.2479 233.762 100.772L233.743 100.791Z" fill="white"/>
<path d="M246.695 40.7961C238.472 36.8954 229.66 34.9545 221.817 35.0496C221.817 35.0496 270.453 36.6099 260.008 115.253C260.331 115.9 269.124 133.177 269.124 133.177C269.124 133.177 280.576 104.997 275.79 77.1206C272.77 59.6148 260.578 47.3988 246.695 40.8151V40.7961Z" fill="#39FF14"/>
<path d="M204.269 30.0643L168.528 34.0221C168.528 34.0221 175.725 16.8398 175.972 9.62817L204.288 30.0643H204.269Z" fill="white"/>
<path d="M163.001 -1.49403e-05C159.811 4.30032 156.544 8.9051 154.854 11.9115C150.904 18.9329 145.131 40.5677 145.131 40.5677C147.656 37.6755 157.722 34.2504 157.722 34.2504C164.046 26.5631 167.806 10.7318 169.743 -0.019043H162.982L163.001 -1.49403e-05Z" fill="white"/>
<path d="M258.945 148C252.07 114.358 240.257 90.8779 240.257 90.8779C235.244 106.804 231.882 127.963 231.142 148H258.945Z" fill="white"/>
<path d="M271.65 148C264.623 131.617 254.577 116.889 254.577 116.889C254.577 116.889 260.35 129.276 263.939 148H271.65Z" fill="white"/>
<path d="M217.297 148C217.886 147.505 218.38 147.03 218.721 146.63C223.032 141.588 224.476 137.554 223.279 134.319C222.083 131.084 214.22 136.907 208.105 137.991C201.99 139.076 184.955 137.325 184.955 137.325C184.955 137.325 185.582 142.177 186.265 148H217.297Z" fill="white"/>
<path d="M182.334 148C181.366 143.738 179.922 139.456 177.757 137.078C172.364 131.198 147.656 126.632 143.82 129.143C141.009 130.989 142.719 142.177 143.82 148H182.353H182.334Z" fill="white"/>
<path d="M280.158 146.192C279.702 144.309 279.094 142.387 278.525 140.522C276.758 134.814 274.935 128.934 276.417 122.978C283.215 93.4466 280.082 69.3762 267.073 51.4708C260.996 43.3649 253.532 38.3605 244.872 36.629C240.162 35.6776 235.832 35.2019 231.654 34.7452C227.438 34.2695 223.07 33.7938 218.285 32.8233C204.079 29.9691 194.071 21.9013 183.455 13.3577C179.694 10.3132 175.782 7.17357 171.604 4.18617L172.706 2.6449C176.941 5.65133 180.853 8.82901 184.651 11.8735C195.077 20.2839 204.915 28.2186 218.664 30.9586C223.374 31.91 227.704 32.3857 231.882 32.8424C236.098 33.3181 240.466 33.7938 245.252 34.7642C254.254 36.5719 262.325 41.9568 268.611 50.3482C281.962 68.7483 285.209 93.3325 278.278 123.435C276.91 128.877 278.658 134.509 280.348 139.97C280.936 141.873 281.544 143.814 282.019 145.755L280.177 146.211L280.158 146.192Z" fill="white"/>
<path d="M229.451 146.383L227.552 146.307C227.761 141.055 228.103 136.812 228.654 132.949L230.534 133.139C230.287 137.706 229.926 142.139 229.489 146.345H229.432C229.432 146.345 229.432 146.364 229.432 146.383H229.451Z" fill="white"/>
</g>
<defs>
<clipPath id="clip0_52_171">
<rect width="282" height="148" fill="white"/>
</clipPath>
</defs>
</svg>
