<svg width="197" height="264" viewBox="0 0 197 264" fill="none" xmlns="http://www.w3.org/2000/svg">
<g clip-path="url(#clip0_52_480)">
<path d="M54.5959 38.162C54.5959 38.162 81.5292 31.1539 95.4593 32.3137C95.4593 32.3137 96.7448 0.987048 94.5199 0.518197C92.2951 0.0493467 82.3449 -1.70267 81.9865 5.53984C81.628 12.7823 81.0471 22.9613 81.0471 22.9613C81.0471 22.9613 57.6242 34.769 54.5835 38.162H54.5959Z" fill="white"/>
<path d="M49.2068 41.7894C49.2068 41.7894 79.774 33.2514 97.1033 35.9411L95.8549 126.762C95.8178 129.205 92.876 130.501 91.1085 128.811C89.8848 127.638 88.6117 125.603 87.4869 122.099C84.0878 111.463 77.7716 99.421 72.2589 93.8072C66.7462 88.1933 60.7885 84.5782 58.0939 80.3709C55.3993 76.1636 51.308 72.4251 55.3993 67.86C59.4906 63.2949 63.9527 60.4941 62.6549 57.8044C61.357 55.1146 49.0708 48.8098 48.6011 46.3545C48.1314 43.8992 49.182 41.8018 49.182 41.8018L49.2068 41.7894Z" fill="white"/>
<path d="M86.1644 187.935C86.1644 187.935 90.268 192.031 91.8996 191.908C93.5312 191.785 94.5942 191.094 94.3593 181.507C94.1245 171.92 94.4706 136.744 94.4706 136.744C94.4706 136.744 95.41 131.957 90.0208 133.82C84.6317 135.683 84.162 151.476 80.3055 154.511C76.4491 157.546 67.7721 163.16 66.3754 168.885C64.9787 174.61 69.0699 176.72 73.6309 178.237C78.1919 179.755 84.7553 185.48 86.1644 187.935Z" fill="#39FF14"/>
<path d="M54.4352 161.519C54.4352 161.519 53.0261 180.569 55.9555 184.9C55.9555 184.9 65.2011 179.175 64.6202 178.126C64.0392 177.078 62.9762 171.118 63.6808 168.774C64.3853 166.43 56.8949 162.457 54.4352 161.531V161.519Z" fill="#39FF14"/>
<path d="M34.5349 73.3875C34.5349 73.3875 34.6956 86.4783 38.5891 88.1933C42.4826 89.9083 46.4009 90.846 49.6764 89.7479C52.9519 88.6498 57.0185 87.2556 56.3881 84.6029C55.7577 81.9502 51.2338 76.4967 50.6158 72.7582C49.9978 69.0198 50.4551 63.8748 48.119 63.2455C45.7829 62.6163 35.944 68.3905 34.5349 73.3752V73.3875Z" fill="white"/>
<path d="M14.6965 94.4241C14.6965 94.4241 21.0992 85.2321 27.0322 76.4967C32.9652 67.7613 49.2067 59.0382 50.4551 56.8543C51.7035 54.6705 50.9248 53.7328 47.7977 50.4632C44.6705 47.1935 46.2403 42.5174 41.395 43.6031C36.5497 44.6889 23.4353 49.5255 16.8843 65.7378C10.3333 81.9502 14.6965 94.4117 14.6965 94.4117V94.4241Z" fill="white"/>
<path d="M36.3271 92.0921C36.3271 92.0921 37.8846 111.414 40.233 118.113C42.5815 124.813 51.79 146.318 54.9048 150.847C58.0196 155.375 59.7501 159.57 63.965 159.89C68.1799 160.211 71.6161 160.668 75.9917 152.414C80.3672 144.159 85.3608 136.978 85.5215 132.623C85.6822 128.268 82.246 119.532 80.2189 115.942C78.1918 112.351 69.2923 94.128 59.2928 86.9595C59.2928 86.9595 49.3056 96.9287 36.3395 92.1045L36.3271 92.0921Z" fill="white"/>
<path d="M49.9112 227.676C49.9112 227.676 63.3346 223 67.4011 213.648C71.4677 204.296 80.5155 197.904 83.791 196.35C87.0665 194.795 86.5968 190.736 81.7639 186.529C76.931 182.321 71.1463 179.36 64.4346 181.692C57.7229 184.024 52.5687 199.619 49.7628 207.565C46.957 215.511 49.9235 227.664 49.9235 227.664L49.9112 227.676Z" fill="#39FF14"/>
<path d="M96.2009 207.257C96.2009 207.257 96.4357 251.674 95.4963 254.598C94.5569 257.522 87.8823 265.592 75.1264 263.716C62.3704 261.841 52.7664 249.688 52.6428 241.976C52.5192 234.265 55.3374 228.54 60.7265 225.616C66.1156 222.692 68.8102 220.36 73.26 212.994C77.7097 205.628 80.6391 200.014 86.9553 198.62C93.2838 197.213 96.0896 200.138 96.2009 207.269V207.257Z" fill="white"/>
<path d="M25.5119 88.3044C25.5119 88.3044 35.3507 109.501 35.3507 117.608C35.3507 125.714 26.9209 160.779 24.7332 157.978C22.5454 155.177 18.3305 129.452 15.8337 129.613C13.3369 129.773 6.62517 156.263 5.84647 153.771C5.06776 151.278 2.57096 104.369 25.5242 88.3167L25.5119 88.3044Z" fill="white"/>
<path d="M1.64402 159.101C-4.7463 126.343 9.44343 100.643 11.1615 97.6937C7.0208 88.0452 6.14321 72.1413 16.0068 56.04C25.3142 40.8517 47.9955 37.6808 50.4676 37.3847C58.8232 30.4013 74.731 22.0853 77.2649 20.7652L76.9559 3.68912L78.192 3.66444L78.5133 21.5055L78.1672 21.6782C77.9818 21.7646 60.0098 30.9318 51.1227 38.4334L50.9744 38.5568L50.789 38.5815C50.5418 38.6062 26.3895 41.4563 17.0574 56.6816C7.32981 72.5362 8.28156 88.1563 12.4099 97.484L12.5459 97.7801L12.3728 98.0515C12.2122 98.3106 -3.80691 124.677 2.85534 158.854L1.64402 159.088V159.101Z" fill="white"/>
<path d="M46.6111 228.565C40.5545 204.37 50.6901 189.823 52.3711 187.627C48.7495 177.534 50.7148 158.212 51.0114 155.473C46.1043 150.452 40.6534 134.511 38.5769 128.021C36.9577 138.434 30.9752 157.139 30.7033 158.003L29.5291 157.633C29.6032 157.398 37.0071 134.215 37.6993 125.047L37.9465 121.716L38.8982 124.924C38.9724 125.171 46.1785 149.144 52.0868 154.819L52.3093 155.029L52.2722 155.338C52.2475 155.56 49.763 177.287 53.6442 187.54L53.7678 187.886L53.5329 188.157C53.4093 188.305 41.4074 202.741 47.8101 228.281L46.6111 228.577V228.565Z" fill="white"/>
<path d="M41.7041 255.684C41.6546 255.499 37.0566 237.041 45.029 221.581L46.1291 222.149C38.3668 237.177 42.8536 255.203 42.903 255.376L41.7041 255.684Z" fill="white"/>
<path d="M142.404 38.162C142.404 38.162 115.471 31.1539 101.541 32.3137C101.541 32.3137 100.255 0.987048 102.48 0.518197C104.705 0.0493467 114.655 -1.70267 115.013 5.53984C115.372 12.7823 115.953 22.9613 115.953 22.9613C115.953 22.9613 139.376 34.769 142.416 38.162H142.404Z" fill="white"/>
<path d="M147.793 41.7894C147.793 41.7894 117.226 33.2514 99.8967 35.9411L101.145 126.762C101.182 129.205 104.124 130.501 105.892 128.811C107.115 127.638 108.388 125.603 109.513 122.099C112.912 111.463 119.228 99.421 124.741 93.8072C130.254 88.1933 136.212 84.5782 138.906 80.3709C141.601 76.1636 145.692 72.4251 141.601 67.86C137.509 63.2949 133.047 60.4941 134.345 57.8044C135.643 55.1146 147.929 48.8098 148.399 46.3545C148.869 43.8992 147.818 41.8018 147.818 41.8018L147.793 41.7894Z" fill="white"/>
<path d="M110.836 187.935C110.836 187.935 106.732 192.031 105.101 191.908C103.469 191.785 102.406 191.094 102.641 181.507C102.876 171.92 102.53 136.744 102.53 136.744C102.53 136.744 101.59 131.957 106.979 133.82C112.368 135.683 112.838 151.476 116.695 154.511C120.551 157.546 129.228 163.16 130.625 168.885C132.034 174.61 127.93 176.72 123.369 178.237C118.808 179.755 112.245 185.48 110.836 187.935Z" fill="#39FF14"/>
<path d="M142.565 161.519C142.565 161.519 143.974 180.569 141.044 184.9C141.044 184.9 131.799 179.175 132.38 178.126C132.961 177.078 134.024 171.118 133.319 168.774C132.615 166.43 140.105 162.457 142.565 161.531V161.519Z" fill="#39FF14"/>
<path d="M162.465 73.3875C162.465 73.3875 162.304 86.4783 158.411 88.1933C154.517 89.9083 150.599 90.846 147.324 89.7479C144.048 88.6498 139.981 87.2556 140.612 84.6029C141.242 81.9502 145.766 76.4967 146.384 72.7582C147.002 69.0198 146.545 63.8748 148.881 63.2455C151.217 62.6163 161.056 68.3905 162.465 73.3752V73.3875Z" fill="white"/>
<path d="M182.304 94.4241C182.304 94.4241 175.901 85.2321 169.968 76.4967C164.035 67.7613 147.793 59.0382 146.545 56.8543C145.296 54.6705 146.075 53.7328 149.202 50.4632C152.33 47.1935 150.76 42.5174 155.605 43.6031C160.45 44.6889 173.565 49.5255 180.116 65.7378C186.667 81.9502 182.304 94.4117 182.304 94.4117V94.4241Z" fill="white"/>
<path d="M160.673 92.0921C160.673 92.0921 159.115 111.414 156.767 118.113C154.431 124.813 145.21 146.318 142.095 150.847C138.98 155.375 137.25 159.57 133.035 159.89C128.82 160.211 125.384 160.668 121.008 152.414C116.633 144.159 111.639 136.978 111.478 132.623C111.318 128.268 114.754 119.532 116.781 115.942C118.808 112.351 127.708 94.128 137.707 86.9595C137.707 86.9595 147.694 96.9287 160.66 92.1045L160.673 92.0921Z" fill="white"/>
<path d="M147.089 227.676C147.089 227.676 133.665 223 129.599 213.648C125.532 204.296 116.484 197.904 113.209 196.35C109.933 194.795 110.403 190.736 115.236 186.529C120.069 182.321 125.854 179.36 132.565 181.692C139.277 184.024 144.431 199.619 147.237 207.565C150.043 215.511 147.076 227.664 147.076 227.664L147.089 227.676Z" fill="#39FF14"/>
<path d="M100.799 207.257C100.799 207.257 100.564 251.674 101.504 254.598C102.443 257.522 109.118 265.592 121.874 263.716C134.629 261.841 144.233 249.688 144.357 241.976C144.468 234.265 141.663 228.54 136.273 225.616C130.884 222.692 128.19 220.36 123.74 212.994C119.29 205.628 116.361 200.014 110.045 198.62C103.728 197.226 100.91 200.138 100.799 207.269V207.257Z" fill="white"/>
<path d="M171.488 88.3044C171.488 88.3044 161.649 109.501 161.649 117.608C161.649 125.714 170.079 160.779 172.267 157.978C174.455 155.177 178.669 129.452 181.166 129.613C183.663 129.773 190.375 156.263 191.153 153.771C191.932 151.278 194.429 104.369 171.476 88.3167L171.488 88.3044Z" fill="white"/>
<path d="M195.356 159.101L194.145 158.866C200.807 124.665 184.788 98.3229 184.627 98.0638L184.454 97.7924L184.59 97.4963C188.719 88.1686 189.67 72.5485 179.943 56.6939C170.611 41.4686 146.446 38.6185 146.211 38.5938L146.026 38.5691L145.877 38.4458C136.978 30.9441 119.006 21.7892 118.833 21.6905L118.487 21.5178L118.808 3.67677L120.044 3.70145L119.735 20.7775C122.269 22.0853 138.177 30.4013 146.533 37.397C149.017 37.7055 171.686 40.864 180.993 56.0523C190.869 72.1537 189.992 88.0699 185.839 97.706C187.557 100.655 201.746 126.355 195.356 159.113V159.101Z" fill="white"/>
<path d="M150.389 228.565L149.19 228.269C155.58 202.729 143.591 188.281 143.467 188.145L143.232 187.873L143.356 187.528C147.237 177.275 144.753 155.535 144.728 155.325L144.691 155.017L144.913 154.807C150.821 149.144 158.028 125.158 158.102 124.912L159.053 121.704L159.301 125.035C159.993 134.202 167.397 157.386 167.471 157.62L166.297 157.99C166.012 157.127 160.042 138.422 158.423 128.009C156.347 134.498 150.896 150.427 145.989 155.461C146.298 158.212 148.251 177.522 144.629 187.614C146.31 189.811 156.445 204.357 150.389 228.552V228.565Z" fill="white"/>
<path d="M155.296 255.684L154.097 255.376C154.147 255.191 158.621 237.177 150.871 222.149L151.971 221.581C159.944 237.041 155.346 255.499 155.296 255.684Z" fill="white"/>
</g>
<defs>
<clipPath id="clip0_52_480">
<rect width="197" height="264" fill="white"/>
</clipPath>
</defs>
</svg>
