<svg width="288" height="137" viewBox="0 0 288 137" fill="none" xmlns="http://www.w3.org/2000/svg">
<g clip-path="url(#clip0_52_322)">
<path d="M29.9967 110.81L26.4971 109.447C64.526 90.1701 81.1907 44.5366 64.4593 5.51722L67.5257 4.22101C84.957 44.8358 69.5588 90.7351 29.9633 110.81H29.9967Z" fill="white"/>
<path d="M71.6582 0C73.3913 7.71082 74.9911 15.1558 76.3243 21.9692C83.8901 60.3903 94.6222 57.2329 104.754 54.7069C110.154 53.3775 105.654 28.5167 99.7883 0H71.6582Z" fill="white"/>
<path d="M187.845 0C181.979 28.5167 177.48 53.3775 182.879 54.7069C192.978 57.2329 203.71 60.3903 211.309 21.9692C212.642 15.1558 214.242 7.71082 215.975 0L187.845 0Z" fill="white"/>
<path d="M276.335 132.646H173.013C165.214 132.646 159.281 130.253 155.382 125.467C150.382 119.385 148.983 109.447 151.382 97.4156L151.516 96.9835C152.416 95.1555 153.349 93.5934 154.182 92.131C156.415 88.2756 158.015 85.517 158.015 81.0966C156.082 65.6749 158.648 51.1839 161.115 37.1582C162.948 26.7552 164.681 16.9505 164.714 6.78021H168.047C168.047 17.2496 166.181 27.6526 164.414 37.7232C161.981 51.5163 159.448 65.7414 161.348 80.8639C161.348 86.3811 159.381 89.8045 157.082 93.7596C156.315 95.1223 155.449 96.5514 154.615 98.2132C152.449 109.148 153.649 118.055 157.948 123.307C161.181 127.262 166.247 129.256 173.013 129.256H276.335C279.001 129.256 283.967 126.664 284.6 124.669C272.802 107.719 250.004 108.949 231.64 109.946C229.873 110.045 228.14 110.145 226.44 110.212L226.307 106.888C227.973 106.821 229.707 106.722 231.473 106.622C250.871 105.592 275.001 104.295 287.733 123.34L288 123.772V124.271C288 128.824 280.267 132.58 276.335 132.58V132.646Z" fill="white"/>
<path d="M45.7282 137C30.2633 137 15.2983 134.507 2.09987 125.733C0.100105 123.772 -0.466495 121.645 0.333412 119.717C1.19998 117.656 3.46638 116.194 5.93276 116.028C26.2637 105.957 46.3947 102.733 71.1919 105.492L70.8252 108.782C46.5614 106.09 26.9303 109.281 7.0993 119.152L6.73267 119.318H6.33272C5.0662 119.318 3.76635 120.049 3.39972 120.947C3.13309 121.612 3.39972 122.343 4.19963 123.107C24.9972 136.9 51.3608 134.108 76.8245 131.383C87.1234 130.286 96.8556 129.256 106.321 129.256C115.787 129.256 125.219 126.165 134.651 120.049V111.375C133.451 109.081 131.785 107.187 130.185 105.326C127.485 102.202 124.652 98.9777 124.652 94.3246C124.652 88.8406 125.752 83.3566 126.819 78.0388C128.419 70.0289 129.952 62.451 128.052 54.8399C124.419 45.7996 123.719 36.6264 123.053 27.7523C122.486 20.3074 121.986 13.2945 119.753 6.54754L122.919 5.51721C125.286 12.663 125.819 19.8753 126.385 27.5196C127.019 36.1278 127.685 45.0684 131.218 53.8428C133.385 62.3845 131.718 70.6936 130.118 78.7035C129.085 83.8551 128.019 89.173 128.019 94.3246C128.019 97.7147 130.185 100.241 132.718 103.132C134.451 105.126 136.418 107.386 137.851 110.212L138.017 110.577V121.844L137.284 122.343C127.052 129.156 116.653 132.58 106.354 132.58C97.0555 132.58 87.4233 133.61 77.1912 134.673C66.7257 135.77 56.0936 136.9 45.7282 136.9V137Z" fill="white"/>
<path d="M256.903 109.547C252.337 103.697 246.505 100.174 241.105 95.0226C233.173 87.4447 224.974 79.6342 219.508 69.763C209.109 51.0509 213.042 26.6887 218.241 5.35104L221.474 6.14871C216.441 26.8882 212.575 50.4527 222.407 68.1676C227.64 77.5735 235.639 85.2178 243.405 92.6295C248.871 97.8476 254.537 103.232 259.236 109.281L256.87 109.547H256.903Z" fill="white"/>
<path d="M97.2888 86.3479L98.5887 93.0948C98.9886 95.222 99.3886 97.3491 99.4219 99.5095C99.5219 106.821 94.7558 113.967 87.9566 116.726C83.6571 118.487 78.8909 118.554 74.2248 118.72C66.0258 119.019 57.86 119.717 49.7277 120.781C48.8278 120.914 47.6612 121.445 47.9279 122.31C48.1278 122.908 48.9277 123.041 49.561 123.041C52.7273 123.074 55.8936 123.14 59.0599 123.174C73.2583 123.373 87.5566 123.573 101.588 121.312C105.121 120.747 109.021 119.75 110.954 116.759C111.787 115.463 112.154 113.901 112.387 112.372C112.854 109.48 112.92 106.556 112.987 103.631C113.12 99.0441 113.22 94.3911 112.254 89.9042C111.787 87.7438 111.487 84.5199 110.054 82.7916C108.621 81.0633 106.888 79.6009 104.688 79.8668C104.121 79.9333 102.288 79.6341 101.855 79.9665C101.088 80.5315 100.055 79.9665 98.6887 81.861C97.6554 83.2901 97.2888 84.6196 97.2888 86.3811" fill="#39FF14"/>
<path d="M184.512 86.3479L183.212 93.0948C182.812 95.222 182.412 97.3491 182.379 99.5095C182.279 106.821 187.045 113.967 193.844 116.726C198.144 118.487 202.91 118.554 207.576 118.72C215.775 119.019 223.941 119.717 232.073 120.781C232.973 120.914 234.14 121.445 233.873 122.31C233.673 122.908 232.873 123.041 232.24 123.041C229.074 123.074 225.907 123.14 222.741 123.174C208.543 123.373 194.244 123.573 180.213 121.312C176.68 120.747 172.78 119.75 170.847 116.759C170.014 115.463 169.647 113.901 169.414 112.372C168.947 109.48 168.881 106.556 168.814 103.631C168.681 99.0441 168.581 94.3911 169.547 89.9042C170.014 87.7438 170.314 84.5199 171.747 82.7916C173.18 81.0633 174.913 79.6009 177.113 79.8668C177.68 79.9333 179.513 79.6341 179.946 79.9665C180.713 80.5315 181.746 79.9665 183.112 81.861C184.145 83.2901 184.512 84.6196 184.512 86.3811" fill="#39FF14"/>
<path d="M57.3599 98.313C57.3599 98.313 75.3578 100.041 77.2576 99.4098C79.1573 98.7783 90.356 91.2336 87.823 86.3479C85.29 81.4622 71.2583 73.4522 57.3599 98.313Z" fill="#39FF14"/>
<path d="M231.873 98.313C231.873 98.313 213.875 100.041 211.976 99.4098C210.076 98.7783 198.877 91.2336 201.41 86.3479C203.943 81.4622 217.975 73.4522 231.873 98.313Z" fill="#39FF14"/>
</g>
<defs>
<clipPath id="clip0_52_322">
<rect width="288" height="137" fill="white"/>
</clipPath>
</defs>
</svg>
