<svg width="295" height="141" viewBox="0 0 295 141" fill="none" xmlns="http://www.w3.org/2000/svg">
<g clip-path="url(#clip0_52_314)">
<path d="M29.5066 114L28 110.992C66.2001 91.3917 82.9398 44.9923 66.1331 5.31797L69.2132 4C86.723 45.2965 69.2467 93.6221 29.5066 114Z" fill="white"/>
<path d="M73.3999 0C75.1752 7.93595 76.8139 15.5983 78.1794 22.6106C85.9291 62.1536 96.9221 58.9039 107.3 56.3042C112.831 54.936 108.222 29.3493 102.214 0H73.3999Z" fill="#39FF14"/>
<path d="M192.41 0C186.402 29.3493 181.793 54.936 187.324 56.3042C197.668 58.9039 208.661 62.1536 216.445 22.6106C217.81 15.5983 219.449 7.93595 221.224 0L192.41 0Z" fill="#39FF14"/>
<path d="M283.051 136.519H177.219C169.23 136.519 163.153 134.056 159.159 129.13C154.038 122.87 152.604 112.643 155.062 100.26L155.199 99.8151C156.12 97.9338 157.076 96.3261 157.93 94.821C160.217 90.853 161.856 88.0138 161.856 83.4643C159.876 67.5924 162.504 52.6783 165.031 38.2431C166.908 27.5364 168.684 17.4454 168.718 6.97818H172.132C172.132 17.7533 170.22 28.46 168.411 38.8246C165.918 53.0204 163.324 67.6609 165.27 83.2249C165.27 88.9032 163.255 92.4265 160.9 96.4971C160.115 97.8996 159.227 99.3705 158.374 101.081C156.154 112.335 157.383 121.502 161.787 126.907C165.099 130.977 170.288 133.03 177.219 133.03H283.051C285.782 133.03 290.869 130.362 291.518 128.309C279.432 110.864 256.081 112.13 237.27 113.156C235.461 113.258 233.685 113.361 231.944 113.429L231.808 110.009C233.515 109.94 235.29 109.838 237.099 109.735C256.969 108.675 281.686 107.341 294.727 126.941L295 127.386V127.899C295 132.585 287.08 136.451 283.051 136.451V136.519Z" fill="white"/>
<path d="M46.8395 141C30.9988 141 15.6701 138.434 2.15082 129.404C0.102442 127.386 -0.477931 125.197 0.341419 123.213C1.22905 121.092 3.55054 119.587 6.07687 119.416C26.902 109.051 47.5223 105.733 72.9221 108.572L72.5466 111.959C47.693 109.188 27.5848 112.472 7.27175 122.631L6.89622 122.802H6.48654C5.18924 122.802 3.85779 123.555 3.48226 124.478C3.20914 125.162 3.48226 125.915 4.30161 126.702C25.6047 140.897 52.6091 138.024 78.6917 135.219C89.2409 134.09 99.2096 133.03 108.905 133.03C118.601 133.03 128.262 129.849 137.924 123.555V114.627C136.695 112.266 134.988 110.317 133.349 108.401C130.584 105.186 127.682 101.868 127.682 97.0786C127.682 91.4345 128.809 85.7904 129.901 80.3173C131.54 72.0735 133.11 64.2744 131.164 56.441C127.443 47.1368 126.726 37.6958 126.043 28.5626C125.463 20.9003 124.951 13.6827 122.663 6.73872L125.907 5.67831C128.331 13.0328 128.877 20.4556 129.457 28.3231C130.106 37.1827 130.789 46.3843 134.408 55.4148C136.627 64.206 134.92 72.7576 133.281 81.0015C132.223 86.3035 131.13 91.7766 131.13 97.0786C131.13 100.568 133.349 103.167 135.944 106.143C137.719 108.196 139.733 110.522 141.201 113.429L141.372 113.806V125.402L140.621 125.915C130.14 132.927 119.489 136.451 108.939 136.451C99.4144 136.451 89.5481 137.511 79.0673 138.606C68.3474 139.734 57.4569 140.897 46.8395 140.897V141Z" fill="white"/>
<path d="M263.302 112.966C258.564 107.061 252.787 101.693 247.184 96.5256C238.952 88.8755 230.443 80.9906 224.771 71.0254C213.979 52.1351 218.061 27.5409 223.456 6L226.811 6.80527C221.589 27.7422 217.576 51.5312 227.78 69.4149C233.21 78.9103 241.511 86.6275 249.571 94.1097C255.243 99.3775 261.123 104.813 266 110.92L263.268 113L263.302 112.966Z" fill="white"/>
</g>
<defs>
<clipPath id="clip0_52_314">
<rect width="295" height="141" fill="white"/>
</clipPath>
</defs>
</svg>
