<svg width="298" height="214" viewBox="0 0 298 214" fill="none" xmlns="http://www.w3.org/2000/svg">
<g clip-path="url(#clip0_52_228)">
<path d="M196.227 79.2951L194.02 78.8219C194.087 78.5515 199.898 51.7818 196.159 36.414C192.263 20.4378 171.251 2.43361 148.932 2.27588C126.614 2.43361 105.602 20.4378 101.706 36.414C97.967 51.7818 103.778 78.5515 103.845 78.8219L101.638 79.2951C101.39 78.1685 95.6474 51.7368 99.521 35.8732C103.62 19.0858 125.6 0.180267 148.932 0C172.287 0.180267 194.268 19.0858 198.344 35.8732C202.195 51.7368 196.452 78.1685 196.227 79.2951Z" fill="white"/>
<path d="M149.203 163.683C138.032 162.714 124.745 150.14 115.534 139.775C103.53 126.232 104.431 106.29 104.476 105.456L106.728 105.569C106.728 105.772 105.827 125.444 117.223 138.288C129.857 152.529 141.208 160.753 149.203 161.452C156.95 160.753 168.278 152.529 180.913 138.288C192.308 125.444 191.407 105.772 191.407 105.569L193.66 105.456C193.705 106.29 194.605 126.255 182.602 139.775C175.057 148.27 160.689 162.669 149.203 163.683Z" fill="white"/>
<path d="M105.94 114.042C95.76 113.569 89.7694 97.75 88.5082 83.261C88.0803 78.2586 89.1613 74.3829 91.7287 71.769C95.4897 67.9608 101.007 68.3439 101.233 68.3664L101.052 70.6198C101.052 70.6198 96.323 70.3043 93.3052 73.3689C91.2332 75.487 90.3549 78.7318 90.7378 83.0582C91.9539 97.029 97.6067 111.383 106.03 111.766L105.917 114.019L105.94 114.042Z" fill="white"/>
<path d="M191.362 114.042L191.25 111.788C199.673 111.383 205.325 97.0515 206.542 83.0808C206.924 78.7769 206.046 75.5095 203.974 73.3914C200.956 70.3268 196.272 70.6423 196.227 70.6423L196.047 68.389C196.272 68.389 201.79 67.9834 205.551 71.7915C208.141 74.4054 209.222 78.2586 208.771 83.2836C207.51 97.7726 201.519 113.569 191.34 114.064L191.362 114.042Z" fill="white"/>
<path d="M114.362 179.975C114.295 179.749 107.493 156.607 107.066 124.813H109.318C109.746 156.269 116.457 179.118 116.524 179.344L114.362 179.997V179.975Z" fill="white"/>
<path d="M183.525 179.975L181.363 179.321C181.43 179.096 188.142 156.247 188.57 124.768H190.822C190.394 156.607 183.593 179.749 183.525 179.975Z" fill="white"/>
<path d="M1.84674 212.986L0 211.679C9.23368 198.655 23.8724 196.604 38.0157 194.621C46.1684 193.472 54.5913 192.3 61.9332 189.033C72.0677 185.225 80.9411 178.42 89.4991 171.84C96.1203 166.77 102.944 161.497 110.376 157.599L111.435 159.582C104.183 163.39 97.4265 168.595 90.8954 173.62C82.2022 180.313 73.1938 187.23 62.8115 191.129C55.2444 194.486 46.6638 195.703 38.3535 196.852C24.0526 198.858 10.5399 200.75 1.86926 212.986H1.84674Z" fill="white"/>
<path d="M144.631 213.414C143.865 203.815 129.564 202.283 129.429 202.283L129.654 200.029C130.33 200.097 145.96 201.742 146.883 213.234L144.631 213.414Z" fill="white"/>
<path d="M155.396 213.414L153.144 213.234C154.067 201.742 169.697 200.097 170.373 200.029L170.598 202.283C170.463 202.283 156.162 203.815 155.396 213.414Z" fill="white"/>
<path d="M64.7934 214C71.5273 209.381 78.9367 206.001 86.9768 204.626C86.9768 204.626 69.9057 191.174 39.1869 203.995C34.1872 206.091 30.0658 209.606 26.6876 214H64.7934Z" fill="white"/>
<path d="M131.997 214C120.443 206.744 100.152 199.736 74.3198 214H131.997Z" fill="white"/>
<path d="M20.6745 214C34.4574 196.717 52.8572 196.086 52.8572 196.086C43.556 195.973 33.1062 198.272 23.3545 202.891C17.3864 205.708 11.7111 209.426 6.68884 213.977H20.6745V214Z" fill="white"/>
<path d="M73.6442 190.182L116.029 194.869C116.029 194.869 107.494 174.521 107.201 165.981L73.6217 190.182H73.6442Z" fill="#39FF14"/>
<path d="M112.628 141.6C112.628 141.6 116.885 180.673 128.844 195.185C128.844 195.185 140.802 199.241 143.775 202.666C143.775 202.666 136.951 177.045 132.244 168.73C127.537 160.416 112.606 141.623 112.606 141.623L112.628 141.6Z" fill="#39FF14"/>
<path d="M271.245 214C267.844 209.583 263.745 206.068 258.746 203.995C228.027 191.196 210.956 204.626 210.956 204.626C219.018 205.978 226.405 209.358 233.139 214H271.245Z" fill="white"/>
<path d="M223.613 214C197.781 199.736 177.489 206.744 165.936 214H223.613Z" fill="white"/>
<path d="M277.281 214H291.266C286.244 209.448 280.569 205.73 274.6 202.914C264.849 198.294 254.399 195.996 245.098 196.108C245.098 196.108 263.498 196.717 277.281 214.023V214Z" fill="white"/>
<path d="M224.288 190.182L181.903 194.869C181.903 194.869 190.439 174.521 190.732 165.981L224.311 190.182H224.288Z" fill="#39FF14"/>
<path d="M185.327 141.6C185.327 141.6 181.07 180.673 169.111 195.185C169.111 195.185 157.153 199.241 154.18 202.666C154.18 202.666 161.004 177.045 165.711 168.73C170.418 160.416 185.349 141.623 185.349 141.623L185.327 141.6Z" fill="#39FF14"/>
<path d="M296.333 213.324C282.393 197.708 257.867 195.703 238.071 195.703H237.756L237.486 195.523C228.567 189.934 220.077 183.715 211.857 177.699C203.456 171.547 194.763 165.193 185.642 159.537L186.836 157.621C196.024 163.322 204.762 169.699 213.185 175.873C221.293 181.8 229.648 187.929 238.409 193.427C258.611 193.449 283.564 195.613 298.023 211.814L296.333 213.324Z" fill="white"/>
</g>
<defs>
<clipPath id="clip0_52_228">
<rect width="298" height="214" fill="white"/>
</clipPath>
</defs>
</svg>
