<svg width="251" height="221" viewBox="0 0 251 221" fill="none" xmlns="http://www.w3.org/2000/svg">
<g clip-path="url(#clip0_52_138)">
<path d="M57.1756 217.263C47.442 188.872 49.0144 157.31 52.1751 127.428C53.2759 119.686 54.5968 112.07 55.8705 104.706C58.2921 90.6204 60.5879 77.3202 61.61 63.0778C61.61 60.6439 62.4277 58.1943 63.214 55.8231C64.0002 53.4677 64.7393 51.2379 64.7393 49.0082C66.3118 33.274 64.7078 17.3829 62.9309 2.44962L64.4877 2.26118C66.2803 17.273 67.8843 33.2583 66.3118 49.0867C66.3118 51.4892 65.4941 53.9545 64.7078 56.3256C63.9216 58.681 63.1825 60.9108 63.1825 63.1406C62.1604 77.5086 59.8489 90.8559 57.4115 104.988C56.1378 112.337 54.8326 119.937 53.7319 127.632C50.6026 157.31 49.0302 188.668 58.6695 216.76L57.1756 217.263Z" fill="white"/>
<path d="M26.4807 200.759C25.3171 200.759 24.1377 200.681 22.9584 200.508L22.581 200.461L22.3923 200.147C20.5682 197.1 18.2409 194.525 15.9922 192.028C12.4699 188.119 9.13621 184.428 8.14555 179.482C7.32785 172.981 9.35636 166.512 11.3062 160.246C13.2089 154.154 15.1903 147.841 14.4198 141.733C12.8473 129.202 10.4571 116.828 8.14555 104.878C5.81827 92.8973 3.42809 80.5078 1.83988 67.9299C-0.817616 53.295 -2.3272 34.436 9.79666 18.7804C10.7716 15.6713 9.56078 11.7456 8.27135 7.60011C7.75243 5.93562 7.21778 4.19262 6.84038 2.51243L8.38142 2.16697C8.74309 3.78435 9.27774 5.49595 9.78093 7.12903C11.1018 11.3845 12.4542 15.7812 11.2433 19.3928L11.1175 19.6284C1.88706 31.4839 -0.487394 46.3073 3.41237 67.6944C4.98485 80.2723 7.39075 92.6303 9.70231 104.58C12.0296 116.561 14.4198 128.951 16.008 141.529C16.8099 147.982 14.7972 154.452 12.8316 160.702C10.9288 166.794 8.94751 173.107 9.71803 179.215C10.6143 183.69 13.8065 187.223 17.1716 190.961C19.3888 193.426 21.6846 195.97 23.5559 199C28.6507 199.644 33.8871 198.529 37.9913 195.923C42.3785 193.143 45.1776 188.872 45.8852 183.91L45.9638 183.392L46.4827 183.266C47.725 182.952 48.6528 182.214 49.3132 181.005C51.326 177.362 50.2252 170.484 49.0616 166.998C47.552 163.983 45.9324 160.764 44.3441 156.006L44.297 155.755C44.297 155.3 43.5579 154.546 42.9604 153.949C42.1112 153.101 41.2306 152.222 41.1677 151.186C36.6547 137.634 33.1638 123.062 38.0542 108.396C38.6832 106.245 39.3279 104.078 39.9884 101.911C47.1903 77.8383 54.6439 52.9495 47.4734 27.1971C44.1869 18.9846 44.3913 9.32741 48.0552 2.07275L49.4547 2.77938C45.9795 9.64146 45.7908 18.8118 48.9515 26.6946C56.2636 52.9652 48.7471 78.0739 41.4822 102.35C40.8375 104.517 40.1771 106.684 39.5481 108.867C34.7834 123.172 38.2429 137.462 42.6773 150.793L42.7245 151.044C42.7245 151.5 43.4636 152.254 44.0611 152.85C44.9102 153.698 45.7908 154.578 45.8537 155.614C47.3948 160.215 48.9673 163.355 50.4926 166.402C51.8292 170.374 52.9299 177.645 50.6655 181.759C49.8793 183.188 48.7628 184.146 47.3476 184.633C46.467 189.846 43.4478 194.305 38.809 197.242C35.1923 199.55 30.8994 200.743 26.465 200.743L26.4807 200.759Z" fill="white"/>
<path d="M23.713 0C24.9553 13.7399 28.9336 21.7797 31.3081 22.0309C34.7676 22.3921 41.545 17.43 46.1681 0H23.6973H23.713Z" fill="white"/>
<path d="M11.1489 0C12.6585 10.7564 15.7406 18.3565 17.2659 18.9061C19.4516 19.7069 23.6187 15.7341 23.6187 15.7341C22.1406 10.4109 21.1657 5.15049 20.5996 0H11.1489Z" fill="white"/>
<path d="M43.039 15.53L33.5098 28.0293C33.5098 28.0293 36.639 61.8059 35.7427 79.3458C34.8464 96.8857 34.8464 109.998 34.8464 109.998C34.8464 109.998 42.0012 82.926 45.5707 77.2731C49.1403 71.6201 50.0366 41.5651 47.3634 37.4039C44.6901 33.2426 44.3914 33.8393 43.7938 27.888C43.1963 21.9367 43.0547 15.5457 43.0547 15.5457L43.039 15.53Z" fill="white"/>
<path d="M32.9594 118.524C32.9594 118.524 32.755 142.926 29.3899 137.76C26.0248 132.594 19.6562 89.7567 16.4798 77.2573C13.3034 64.758 9.02622 41.1097 11.1176 32.6773C13.209 24.245 15.8822 21.6697 19.6562 21.1673C23.4302 20.6648 31.5756 23.2557 31.8744 38.2204C32.1732 53.1851 32.472 113.499 32.9594 118.508V118.524Z" fill="white"/>
<path d="M7.5323 32.2063C7.5323 32.2063 7.67382 52.133 11.4006 67.7572C15.1274 83.3814 22.864 121.021 23.32 125.182C23.7761 129.343 27.1884 147.244 21.5274 145.47C15.8665 143.696 13.7751 112.447 11.9982 104.706C10.2212 96.9643 3.66398 73.7556 3.06644 65.7159C2.4689 57.6761 3.66398 34.1848 7.5323 32.1906V32.2063Z" fill="white"/>
<path d="M67.4751 0C76.3596 13.3159 88.169 27.8409 88.169 27.8409L85.8103 0H67.4751Z" fill="white"/>
<path d="M68.7176 13.1589C68.7176 13.1589 89.8675 37.1055 91.3613 45.1453C92.8552 53.1851 95.2297 76.8334 92.3992 75.2003C89.5687 73.5672 70.1957 54.0801 68.4188 47.5321C66.6419 40.9841 68.7176 13.1746 68.7176 13.1746V13.1589Z" fill="white"/>
<path d="M116.867 0H106.174C100.042 0.769433 92.6351 2.38681 91.5658 4.33395C89.9304 7.30176 90.3707 23.3813 91.5658 30.212C92.7609 37.0584 96.3304 37.3568 96.3304 37.3568C96.3304 37.3568 110.483 37.9535 112.417 35.2683C114.351 32.5831 119.415 24.9987 121.506 23.3656C123.597 21.7326 124.195 5.96703 122.103 3.14054C120.625 1.1463 119.069 0.423973 116.867 0Z" fill="white"/>
<path d="M95.2769 54.0173C95.2769 54.0173 95.8744 68.1498 99.4439 76.4879C103.013 84.8261 110.027 106.684 115.09 107.579C120.154 108.474 123.88 104.454 123.141 100.293C122.402 96.132 122.701 43.9048 121.506 41.832C120.311 39.7593 115.247 39.1469 110.184 39.4452C105.121 39.7436 95.2926 42.2717 95.2926 54.0173H95.2769Z" fill="white"/>
<path d="M67.5224 55.9959C67.5224 55.9959 79.143 75.7813 78.9858 79.5028C78.8285 83.2244 70.9347 108.364 68.1042 107.626C65.2737 106.888 62.5848 99.1469 64.0786 92.3005C65.5725 85.4542 67.0506 55.1165 67.5067 55.9959H67.5224Z" fill="#39FF14"/>
<path d="M84.8042 81.7326C84.8042 81.7326 101.929 106.433 104.177 112.086C106.426 117.739 105.215 143.774 104.319 150.322C103.422 156.87 94.0347 202.989 92.8553 198.812C91.676 194.635 81.675 146.899 80.3384 137.823C79.0017 128.747 74.9762 112.683 76.47 104.643C77.9639 96.6031 83.3261 78.0111 84.8199 81.7326H84.8042Z" fill="white"/>
<path d="M118.88 219.932C118.817 201.199 118.55 173.012 119.053 156.116C119.792 131.573 110.703 134.101 110.703 134.101C108.171 134.4 105.781 158.943 105.341 162.963C104.9 166.983 98.9407 191.369 97.7456 197.619C97.1323 200.791 96.5663 210.024 96.2832 219.932H118.88Z" fill="white"/>
<path d="M90.1978 219.932C89.2386 208.595 87.0843 193.96 86.644 187.553C86.0464 179.074 70.2587 116.75 70.2587 116.75C70.2587 116.75 67.727 112.73 64.5978 116.153C61.4685 119.576 59.0783 154.829 58.7953 179.074C58.638 192.201 61.2641 207.072 64.3619 219.932H90.2135H90.1978Z" fill="white"/>
<path d="M202.284 0C206.907 17.43 213.701 22.3921 217.144 22.0309C219.534 21.7797 223.497 13.7399 224.739 0H202.269H202.284Z" fill="white"/>
<path d="M227.869 0C227.287 5.15049 226.328 10.4109 224.85 15.7341C224.85 15.7341 229.017 19.7069 231.202 18.9061C232.728 18.3565 235.81 10.7564 237.319 0H227.869Z" fill="white"/>
<path d="M205.429 15.53L214.959 28.0293C214.959 28.0293 211.829 61.8059 212.726 79.3458C213.622 96.9014 213.622 109.998 213.622 109.998C213.622 109.998 206.467 82.926 202.898 77.2731C199.328 71.6201 198.432 41.5651 201.105 37.4039C203.778 33.2426 204.077 33.8393 204.674 27.888C205.272 21.9367 205.414 15.5457 205.414 15.5457L205.429 15.53Z" fill="white"/>
<path d="M215.509 118.524C215.509 118.524 215.713 142.926 219.078 137.76C222.443 132.594 228.812 89.7567 231.988 77.2573C235.165 64.758 239.442 41.1097 237.351 32.6773C235.259 24.245 232.586 21.6697 228.812 21.1673C225.038 20.6648 216.893 23.2557 216.594 38.2204C216.295 53.1851 215.996 113.499 215.509 118.508V118.524Z" fill="white"/>
<path d="M240.936 32.2063C240.936 32.2063 240.794 52.133 237.068 67.7572C233.341 83.3814 225.604 121.021 225.148 125.182C224.692 129.343 221.28 147.244 226.941 145.47C232.602 143.696 234.693 112.447 236.47 104.706C238.247 96.9643 244.82 73.7556 245.402 65.7316C245.984 57.7075 244.804 34.2005 240.936 32.2063Z" fill="white"/>
<path d="M162.642 0L160.283 27.8409C160.283 27.8409 172.093 13.3159 180.977 0H162.642Z" fill="white"/>
<path d="M179.751 13.1589C179.751 13.1589 158.601 37.1055 157.107 45.1453C155.613 53.1851 153.239 76.8334 156.069 75.2003C158.9 73.5672 178.273 54.0801 180.05 47.5321C181.842 40.9841 179.751 13.1746 179.751 13.1746V13.1589Z" fill="white"/>
<path d="M142.31 0H131.617C129.415 0.423973 127.859 1.1463 126.38 3.14054C124.289 5.96703 124.887 21.7326 126.978 23.3656C129.069 24.9987 134.133 32.5831 136.067 35.2683C138.001 37.9535 152.153 37.3568 152.153 37.3568C152.153 37.3568 155.723 37.0584 156.918 30.212C158.113 23.3656 158.554 7.30176 156.918 4.33395C155.849 2.38681 148.442 0.769433 142.31 0Z" fill="white"/>
<path d="M153.191 54.0173C153.191 54.0173 152.594 68.1498 149.024 76.4879C145.455 84.8261 138.442 106.684 133.378 107.579C128.315 108.474 124.588 104.454 125.327 100.293C126.066 96.132 125.767 43.9048 126.962 41.832C128.157 39.7593 133.221 39.1469 138.284 39.4452C143.348 39.7436 153.176 42.2717 153.176 54.0173H153.191Z" fill="white"/>
<path d="M183.635 55.9959C183.635 55.9959 172.014 75.7813 172.172 79.5028C172.329 83.2244 180.223 108.364 183.053 107.626C185.884 106.888 188.573 99.1469 187.079 92.3005C185.585 85.4542 184.107 55.1165 183.651 55.9959H183.635Z" fill="#39FF14"/>
<path d="M167.501 81.7326C167.501 81.7326 150.377 106.433 148.128 112.086C145.879 117.739 147.09 143.774 147.986 150.322C148.883 156.87 158.27 202.989 159.45 198.812C160.629 194.635 170.63 146.899 171.967 137.823C173.303 128.747 177.329 112.683 175.835 104.643C174.341 96.6031 168.979 78.0111 167.485 81.7326H167.501Z" fill="white"/>
<path d="M133.425 219.932H156.022C155.723 210.024 155.157 200.791 154.559 197.619C153.364 191.369 147.405 166.967 146.964 162.963C146.524 158.943 144.134 134.4 141.602 134.101C141.602 134.101 132.513 131.573 133.252 156.116C133.771 173.012 133.504 201.199 133.425 219.932Z" fill="white"/>
<path d="M187.959 219.932C191.041 207.072 193.683 192.201 193.526 179.074C193.227 154.829 190.837 119.576 187.723 116.153C184.594 112.73 182.062 116.75 182.062 116.75C182.062 116.75 166.274 179.074 165.677 187.553C165.221 193.96 163.082 208.595 162.123 219.932H187.975H187.959Z" fill="white"/>
<path d="M221.531 200.1C216.893 200.1 212.631 197.996 209.581 193.929C208.386 191.573 207.473 189.563 206.609 187.632C205.052 184.177 203.7 181.178 201.702 178.194C199.721 174.253 202.111 168.647 203.228 166.417C204.124 164.643 205.115 162.9 206.153 161.063C208.779 156.478 211.483 151.72 212.584 146.192C215.037 126.595 209.816 109.134 204.281 90.6518C202.835 85.8467 201.356 80.869 200.02 75.8912C196.466 65.2448 195.428 55.8703 196.859 47.2966C197.378 44.7056 197.928 42.1775 198.479 39.6808C201.246 27.1029 203.872 15.2159 199.784 2.99922L201.278 2.49673C205.492 15.1217 202.835 27.2128 200.02 40.0262C199.47 42.5072 198.919 45.0197 198.4 47.5792C197.016 55.8703 198.039 64.9935 201.514 75.4358C202.85 80.445 204.344 85.4071 205.775 90.1964C211.358 108.836 216.625 126.454 214.125 146.444C212.961 152.269 210.178 157.137 207.505 161.832C206.467 163.654 205.492 165.365 204.612 167.108C203.825 168.679 201.372 174.08 203.039 177.394C205.052 180.408 206.436 183.455 208.024 186.972C208.889 188.904 209.801 190.882 210.901 193.096C215.477 199.173 222.915 200.304 230.243 195.907C238.436 191.008 242.304 183.282 240.873 174.724C234.788 139.77 240.291 109.589 248.735 70.7878C249.758 64.6952 249.427 59.2463 249.081 53.4834C248.908 50.5313 248.72 47.485 248.72 44.2503C247.084 36.1791 245.543 30.2434 242.508 24.1822L242.446 23.978C241.329 18.3879 241.769 13.52 242.21 8.80923C242.398 6.78358 242.587 4.67941 242.65 2.54384L244.222 2.59095C244.16 4.77363 243.955 6.89349 243.766 8.95055C243.326 13.7399 242.917 18.2466 243.955 23.5698C247.037 29.7409 248.594 35.7708 250.261 44.0775C250.261 47.4065 250.465 50.4371 250.638 53.3735C250.984 59.2306 251.33 64.758 250.277 71.0548C241.864 109.731 236.376 139.754 242.414 174.426C243.955 183.659 239.804 191.966 231.029 197.21C227.853 199.11 224.598 200.053 221.516 200.053L221.531 200.1Z" fill="white"/>
<path d="M195.554 216.949L194.013 216.635C202.882 172.589 195.57 127.553 188.509 83.9938C187.078 75.1375 185.585 65.9671 184.264 56.9538C183.21 48.49 183.556 39.9477 183.902 31.6881C184.075 27.574 184.248 23.3342 184.248 19.1573C184.248 17.8226 183.556 16.7705 182.801 15.6713C181.999 14.4779 181.103 13.1118 181.103 11.306C181.103 8.96625 182.613 6.70506 183.949 4.71082C184.594 3.73725 185.207 2.82649 185.616 1.96284L187.031 2.63806C186.575 3.59593 185.931 4.55379 185.254 5.57447C183.981 7.4745 182.66 9.45304 182.66 11.306C182.66 12.6407 183.352 13.6928 184.106 14.792C184.908 15.9854 185.805 17.3515 185.805 19.1573C185.805 23.3656 185.632 27.6211 185.459 31.7509C185.113 39.9477 184.767 48.4272 185.805 56.7496C187.126 65.7316 188.62 74.8863 190.05 83.7426C197.142 127.428 204.47 172.604 195.538 216.949H195.554Z" fill="white"/>
<path d="M122.166 221H120.594V142C120.594 139.11 122.952 136.755 125.846 136.755C128.739 136.755 131.098 139.11 131.098 142V220.702H129.525V142C129.525 139.974 127.874 138.325 125.846 138.325C123.817 138.325 122.166 139.974 122.166 142V221Z" fill="white"/>
</g>
<defs>
<clipPath id="clip0_52_138">
<rect width="251" height="221" fill="white"/>
</clipPath>
</defs>
</svg>
