<svg width="162" height="235" viewBox="0 0 162 235" fill="none" xmlns="http://www.w3.org/2000/svg">
<g clip-path="url(#clip0_52_294)">
<path d="M24.1671 230.678C8.30628 185.681 8.96638 140.227 26.019 102.629C27.4126 75.159 17.236 48.6043 7.40781 22.9286C4.89576 16.409 2.32869 9.66958 0 3.07668L1.7236 2.47234C4.03396 9.0286 6.61935 15.768 9.11307 22.2693C19.0513 48.1831 29.3195 74.9942 27.8343 102.904L27.761 103.234C10.8367 140.41 10.1766 185.462 25.8907 230.074L24.1671 230.678Z" fill="white"/>
<path d="M47.5275 0C46.9774 12.9111 46.7757 28.8073 47.4175 37.378C48.4627 51.6077 56.8056 56.4608 62.1781 57.3215C67.569 58.1823 72.9415 38.0556 73.4732 28.0015C73.6749 24.119 73.6382 13.3689 73.5832 0H47.5459H47.5275Z" fill="white"/>
<path d="M40.688 18.5334C40.7614 13.8634 40.193 7.12399 39.4412 0H8.32471C11.7169 15.7497 16.0626 29.8328 18.6296 37.7809C23.3237 52.3586 33.7386 60.3433 38.2677 59.1163C42.7784 57.9076 40.523 30.8401 40.7064 18.515L40.688 18.5334Z" fill="white"/>
<path d="M52.1116 235C51.8549 214.873 53.9452 188.538 53.6518 169.309C53.3034 146.069 41.4949 118.654 41.4949 118.654C35.9391 109.277 31.08 117.262 27.9445 124.203C24.809 131.144 18.208 165.848 18.208 178.338C18.208 190.828 26.6426 225.184 30.3465 235.018H52.0932L52.1116 235Z" fill="white"/>
<path d="M63.5713 235H64.7815C68.9438 227.473 74.9031 199.984 75.9116 192.897C76.9567 185.608 82.5126 158.193 78.0019 147.791C73.4912 137.389 66.8902 113.782 63.0579 114.13C59.244 114.478 60.9676 122.811 60.9676 122.811C60.9676 122.811 60.3808 224.726 63.5713 235Z" fill="white"/>
<path d="M90.5809 0C90.5075 13.3872 90.4892 24.1373 90.6909 28.0015C91.2043 38.0556 96.5951 58.1823 101.986 57.3215C107.377 56.4608 115.701 51.5894 116.747 37.378C117.37 28.8073 117.187 12.9111 116.637 0H90.5992H90.5809Z" fill="white"/>
<path d="M124.722 0C123.971 7.10567 123.402 13.8451 123.475 18.5334C123.641 30.8584 121.385 57.9259 125.914 59.1346C130.425 60.3433 140.858 52.3769 145.552 37.7992C148.101 29.8512 152.465 15.768 155.857 0.0183136H124.741L124.722 0Z" fill="white"/>
<path d="M113.116 235H134.862C138.566 225.184 147.001 190.406 147.001 178.319C147.001 166.232 140.4 131.125 137.264 124.184C134.129 117.244 129.27 109.259 123.714 118.635C123.714 118.635 111.905 146.051 111.557 169.291C111.264 188.52 113.354 214.873 113.097 234.982L113.116 235Z" fill="white"/>
<path d="M102.133 235H103.343C106.552 224.726 105.947 122.811 105.947 122.811C105.947 122.811 107.688 114.478 103.856 114.13C100.042 113.782 93.4413 137.37 88.9123 147.791C84.4016 158.193 89.9574 185.608 91.0026 192.897C92.0111 199.984 97.9703 227.473 102.133 235Z" fill="white"/>
<path d="M47.1787 112.006C44.8317 112.006 42.7047 111.182 40.8527 109.57C33.9584 103.6 32.8765 88.6194 32.8398 87.9968L34.6735 87.8686C34.6735 88.0151 35.7553 102.721 42.0629 108.197C43.7682 109.68 45.6568 110.321 47.8205 110.156L47.9488 111.988C47.6921 111.988 47.4354 112.024 47.1787 112.024V112.006Z" fill="white"/>
<path d="M59.3175 109.827L58.6758 108.105C58.6758 108.105 67.2388 104.259 64.58 77.1185L66.4136 76.9354C69.2374 105.761 59.7393 109.662 59.3359 109.808L59.3175 109.827Z" fill="white"/>
<path d="M107.083 111.218C98.6118 108.068 98.9968 82.4844 99.0702 79.5725L100.904 79.6275C100.72 87.1727 101.582 107.226 107.725 109.515L107.083 111.237V111.218Z" fill="white"/>
<path d="M116.875 111.475L116.435 109.698C117.076 109.534 132.332 105.413 130.572 84.2974L132.405 84.1509C134.294 106.878 117.058 111.438 116.893 111.493L116.875 111.475Z" fill="white"/>
<path d="M92.4509 230.66C91.6624 221.833 89.7555 213.298 87.9035 205.021C84.4013 189.271 81.0825 174.382 84.6947 157.588C92.891 120.705 95.293 88.4546 92.0108 58.9881C92.0108 52.7798 90.2506 46.6081 88.3986 40.0885C86.9684 35.0522 85.4832 29.8328 84.6764 24.2289C84.6764 16.9034 84.6764 9.46813 84.328 2.06944L86.1616 1.99619C86.4916 9.4315 86.4916 16.8851 86.4916 24.1007C87.2618 29.4483 88.7286 34.6127 90.1589 39.594C92.0475 46.2418 93.8261 52.5234 93.8261 58.8965C97.1266 88.473 94.7246 120.925 86.4733 157.991C82.9528 174.382 86.2349 189.07 89.6821 204.636C91.5341 212.95 93.4594 221.558 94.2662 230.495L92.4326 230.66H92.4509Z" fill="white"/>
<path d="M73.1063 230.513L71.2727 230.33C72.1712 220.862 74.0781 211.119 75.9301 201.724C78.9739 186.139 82.146 170.042 81.0092 154.182C79.1939 141.564 75.5267 128.708 70.0808 116.017L69.9525 115.705L70.0442 115.394C73.198 104.919 72.0795 95.2123 70.906 84.9384C70.0808 77.7046 69.219 70.2143 70.0075 62.4677C73.6197 42.5791 75.5083 22.4341 75.6 2.50896H77.4336C77.3236 22.544 75.435 42.7989 71.8228 62.724C71.071 70.2143 71.9144 77.5947 72.7396 84.737C73.8764 94.6446 75.0316 104.882 71.8961 115.614C77.3236 128.342 81.0092 141.253 82.8245 153.999C83.9796 170.17 80.8075 186.396 77.727 202.09C75.8934 211.449 74.0048 221.137 73.1063 230.531V230.513Z" fill="white"/>
<path d="M142.875 230.733L141.134 230.147C148.028 209.562 154.556 184.876 150.705 157.918C149.495 150.025 147.625 141.967 145.828 134.184C142.197 118.507 138.456 102.3 139.703 86.2936C140.528 81.2757 141.702 76.4226 142.949 71.2765C144.471 64.9949 146.029 58.4936 147.038 51.4429C148.596 44.4471 150.797 37.4513 152.942 30.6753C155.894 21.2987 158.956 11.6291 160.185 2.21594L162 2.45402C160.735 12.0137 157.654 21.7749 154.684 31.2064C152.557 37.9458 150.357 44.9232 148.835 51.7542C147.826 58.8232 146.249 65.3612 144.727 71.6977C143.499 76.8072 142.325 81.642 141.519 86.5134C140.308 102.172 144.031 118.233 147.625 133.781C149.44 141.601 151.292 149.677 152.52 157.662C156.426 185.022 149.843 209.947 142.875 230.751V230.733Z" fill="white"/>
<path d="M50.1309 105.468C57.2096 105.468 62.9479 97.9164 62.9479 88.6011C62.9479 79.2858 57.2096 71.7343 50.1309 71.7343C43.0523 71.7343 37.314 79.2858 37.314 88.6011C37.314 97.9164 43.0523 105.468 50.1309 105.468Z" fill="#39FF14"/>
<path d="M115.444 105.468C122.523 105.468 128.261 97.9164 128.261 88.6011C128.261 79.2858 122.523 71.7343 115.444 71.7343C108.366 71.7343 102.627 79.2858 102.627 88.6011C102.627 97.9164 108.366 105.468 115.444 105.468Z" fill="#39FF14"/>
</g>
<defs>
<clipPath id="clip0_52_294">
<rect width="162" height="235" fill="white"/>
</clipPath>
</defs>
</svg>
