<svg width="191" height="291" viewBox="0 0 191 291" fill="none" xmlns="http://www.w3.org/2000/svg">
<g clip-path="url(#clip0_52_384)">
<path d="M20.8183 67.2825C20.8183 67.2825 19.608 96.9918 29.996 113.528C40.384 130.065 52.4145 134.029 60.4727 139.303C68.5309 144.578 82.7328 165.237 92.2675 169.083C101.802 172.928 105.829 159.761 99.3882 146.236C92.9479 132.711 62.2854 57.82 45.2289 55.3889C28.1723 52.9577 20.6579 60.5045 20.8183 67.2825Z" fill="white"/>
<path d="M60.6145 55.3194C60.6145 55.3194 93.6642 128.196 99.6803 127.849C105.697 127.502 113.594 117.024 108.305 100.699C103.016 84.3729 89.5955 52.0549 84.4355 37.8287C79.2755 23.6025 77.5646 10.4046 72.1987 13.4944C66.8328 16.5843 59.9466 54.0577 60.6208 55.3463L60.6145 55.3194Z" fill="white"/>
<path d="M110.262 142.21C110.262 142.21 104.571 143.928 106.26 151.054C107.949 158.179 107.521 165.466 107.329 173.747C107.137 182.029 99.5949 192.451 111.166 199.023C122.737 205.594 147.098 222.084 155.905 233.628L171.04 209.052C171.04 209.052 145.249 176.6 135.397 166.752C125.545 156.904 110.235 142.216 110.235 142.216L110.262 142.21Z" fill="white"/>
<path d="M111.422 203.932C108.259 202.552 104.556 203.685 102.594 206.536C99.045 211.666 93.7661 220.387 95.7247 224.58C98.6244 230.708 106.785 247.063 116.425 254.462C126.065 261.861 132.937 266.678 132.937 266.678L151.819 236.017C151.819 236.017 126.102 210.335 111.395 203.938L111.422 203.932Z" fill="white"/>
<path d="M99.1763 198.94L96.4993 198.297C97.0854 195.744 94.9229 182.795 93.386 175.236L96.0907 174.68C96.4946 176.742 100.128 194.937 99.1763 198.94Z" fill="white"/>
<path d="M92.3395 210.302C91.9904 210.385 83.7817 212.132 76.0297 205.876C67.2631 198.81 62.8101 184.814 62.8673 164.239L65.6189 164.24C65.5893 183.615 69.7587 197.253 77.696 203.692C84.4 209.117 91.4334 207.677 91.7288 207.607L92.3664 210.296L92.3395 210.302Z" fill="white"/>
<path d="M175.623 210.436C160.253 187.242 117.394 141.427 116.971 140.96L116.515 140.471L116.637 139.789C125.066 89.6813 80.6718 15.9727 80.2452 15.2502L82.5989 13.8118C83.0587 14.5548 127.591 88.4863 119.452 139.577C124.171 144.649 163.304 186.831 177.924 208.897L175.623 210.436Z" fill="white"/>
<path d="M63.0792 172.311C62.8748 172.047 41.7882 146.516 27.4424 125.011C12.9522 103.256 11.6942 70.5533 11.6504 69.1721L14.4097 69.0859C14.4325 69.4213 15.7005 102.405 29.75 123.498C44.0103 144.882 65.0113 170.291 65.2157 170.555L63.0792 172.311Z" fill="white"/>
<path d="M124.738 276.006C88.8145 248.314 78.5627 207.945 78.4402 207.548L81.1257 206.912C81.215 207.288 91.2833 246.763 126.404 273.822L124.711 276.013L124.738 276.006Z" fill="white"/>
<path d="M70.8302 172.461C71.6745 181.406 74.7309 190.11 79.71 197.591C80.2823 198.45 80.9146 199.322 81.8323 199.843C82.75 200.364 84.0018 200.379 84.7004 199.617C85.1342 199.174 85.2957 198.539 85.4368 197.938C86.5625 193.354 87.2817 188.611 86.9626 183.915C86.6435 179.22 85.207 174.477 82.3594 170.722C81.7335 169.876 81.0065 169.083 80.0951 168.589C78.6981 167.841 77.0308 167.867 75.4567 167.928C74.8941 167.948 74.3046 167.974 73.7534 168.161C71.757 168.833 71.0918 171.292 70.7656 173.385" fill="#39FF14"/>
</g>
<defs>
<clipPath id="clip0_52_384">
<rect width="131.955" height="267.717" fill="white" transform="translate(0 30.442) rotate(-13.3382)"/>
</clipPath>
</defs>
</svg>
