<svg width="135" height="226" viewBox="0 0 135 226" fill="none" xmlns="http://www.w3.org/2000/svg">
<g clip-path="url(#clip0_52_204)">
<path d="M22.4292 167.762C23.4609 173.573 24.5209 179.581 24.535 185.816C18.5991 198.439 15.1365 212.248 14.2037 226H15.617C16.5498 212.403 19.9842 198.75 25.8777 186.267L25.9484 185.971C25.9484 179.567 24.8601 173.432 23.8143 167.508C22.7825 161.64 21.7084 155.575 21.7084 149.299L21.6519 149.002C1.20118 104.107 -3.95742 51.722 7.12298 1.50921L5.73793 1.21301C-5.39901 51.6656 -0.226267 104.304 20.3092 149.454C20.3234 155.801 21.3975 161.88 22.4433 167.762H22.4292Z" fill="white"/>
<path d="M64.6734 0H51.897C53.8473 3.99164 55.8119 6.96773 57.522 7.27804C62.0729 8.08201 65.4224 4.4712 64.7582 0.733446C64.7299 0.578294 64.7016 0.310304 64.6734 0Z" fill="white"/>
<path d="M11.5044 0C12.0556 3.79417 13.6385 6.88311 15.2921 7.32035C16.2814 7.57424 17.9774 4.30194 19.6592 0H11.4902H11.5044Z" fill="white"/>
<path d="M41.0003 0H23.8144C23.3904 1.73488 23.037 3.34282 22.7968 4.64045C21.4541 11.8621 25.0722 26.2912 26.2735 34.4437C27.4748 42.5963 36.4494 85.4887 37.5235 89.2265C38.5976 92.9642 47.0351 51.5387 47.8266 45.6711C48.6322 39.7894 49.7063 16.4038 47.6994 11.3261C46.9221 9.35143 44.1237 4.82382 41.0003 0Z" fill="#39FF14"/>
<path d="M53.5929 31.1009C53.5929 31.1009 61.7619 28.8301 61.0976 50.8757C60.4333 72.9214 61.2248 116.35 60.8291 124.107C60.4333 131.865 56.2782 147.352 52.123 146.689C47.9679 146.026 41.5514 142.274 40.7458 131.329C39.9402 120.384 40.873 93.7823 41.9472 88.1686C43.0213 82.555 48.3777 60.6362 48.7735 57.0395C49.1692 53.4428 51.3174 31.383 53.5929 31.115V31.1009Z" fill="#39FF14"/>
<path d="M17.2142 15.5152C17.2142 15.5152 31.4039 71.4968 31.941 79.1134C32.478 86.7299 35.6863 107.309 35.5591 116.801C35.4319 126.294 37.1702 147.14 33.6793 148.071C30.1884 149.002 22.1608 142.867 18.5427 131.639C14.9246 120.412 6.62846 93.2886 6.89699 71.5109C7.16552 49.7333 9.31376 18.0681 12.1121 14.9933C14.9105 11.9185 17.2001 15.5293 17.2001 15.5293L17.2142 15.5152Z" fill="#39FF14"/>
<path d="M45.0706 226C43.1344 209.991 36.195 193.898 36.195 193.898C31.9126 186.676 28.1673 192.826 25.7506 198.171C24.1394 201.74 21.341 214.829 19.6592 226H45.0706Z" fill="white"/>
<path d="M51.1905 226H65.6487C65.677 222.149 65.3237 218.694 64.3061 216.352C60.8293 208.341 55.7414 190.16 52.7876 190.428C49.8479 190.696 51.1764 197.114 51.1764 197.114C51.1764 197.114 51.1057 210.076 51.1764 226H51.1905Z" fill="white"/>
<path d="M66.8074 0C66.7791 0.310304 66.7508 0.564189 66.7226 0.733446C66.0583 4.4712 69.3938 8.08201 73.9588 7.27804C75.6689 6.98184 77.6334 3.99164 79.5838 0H66.8074Z" fill="white"/>
<path d="M114.21 0C115.906 4.30194 117.588 7.57424 118.577 7.32035C120.231 6.88311 121.814 3.79417 122.365 0H114.196H114.21Z" fill="white"/>
<path d="M111.101 0H93.9149C90.7915 4.82382 87.9931 9.36554 87.2158 11.3261C85.2089 16.4038 86.283 39.7894 87.0886 45.6711C87.8942 51.5528 96.3317 92.9784 97.3917 89.2265C98.4658 85.4887 107.44 42.5963 108.642 34.4437C109.843 26.2912 113.461 11.8621 112.118 4.64045C111.878 3.34282 111.525 1.73488 111.101 0Z" fill="#39FF14"/>
<path d="M81.3366 31.1009C81.3366 31.1009 73.1676 28.8301 73.8319 50.8757C74.4961 72.9214 73.7047 116.35 74.1004 124.107C74.4961 131.865 78.6513 147.352 82.8064 146.689C86.9616 146.026 93.378 142.274 94.1836 131.329C94.9892 120.384 94.0564 93.7823 92.9823 88.1686C91.9082 82.555 86.5517 60.6362 86.156 57.0395C85.7603 53.4428 83.612 31.383 81.3366 31.115V31.1009Z" fill="#39FF14"/>
<path d="M117.701 15.5152C117.701 15.5152 103.511 71.4968 102.974 79.1134C102.437 86.7299 99.2291 107.309 99.3563 116.801C99.4835 126.294 97.7451 147.14 101.236 148.071C104.727 149.002 112.755 142.867 116.373 131.639C119.991 120.412 128.287 93.2886 128.018 71.5109C127.75 49.7333 125.602 18.0681 122.803 14.9933C120.005 11.9185 117.715 15.5293 117.715 15.5293L117.701 15.5152Z" fill="#39FF14"/>
<path d="M116.104 226C114.422 214.829 111.624 201.74 110.012 198.171C107.596 192.826 103.85 186.676 99.568 193.898C99.568 193.898 92.6286 209.991 90.6924 226H116.104Z" fill="white"/>
<path d="M85.8592 226C85.9298 210.076 85.8592 197.114 85.8592 197.114C85.8592 197.114 87.2018 190.696 84.248 190.428C81.3083 190.16 76.2204 208.327 72.7295 216.352C71.7119 218.694 71.3585 222.149 71.3868 226H85.845H85.8592Z" fill="white"/>
<path d="M40.5624 188.792C38.7533 188.792 37.1139 188.157 35.6864 186.916C30.3724 182.318 29.5385 170.78 29.5103 170.3L30.9236 170.202C30.9236 170.315 31.7574 181.641 36.6192 185.858C37.9336 187 39.3893 187.494 41.0571 187.367L41.156 188.778C40.9581 188.778 40.7603 188.806 40.5624 188.806V188.792Z" fill="white"/>
<path d="M49.9185 187.127L49.4238 185.802L49.6782 186.464L49.4238 185.816C49.4238 185.816 56.024 182.854 53.9747 161.95L55.388 161.809C57.5645 184.01 50.2436 187.015 49.9326 187.127H49.9185Z" fill="white"/>
<path d="M86.7354 188.199C80.2059 185.773 80.5027 166.069 80.5592 163.826L81.9725 163.869C81.8312 169.68 82.4955 185.125 87.2301 186.888L86.7354 188.213V188.199Z" fill="white"/>
<path d="M94.2967 188.397L93.9575 187.029C94.4522 186.902 106.211 183.728 104.854 167.465L106.268 167.353C107.723 184.857 94.438 188.369 94.3108 188.411L94.2967 188.397Z" fill="white"/>
<path d="M59.2745 184.518C58.6526 186.267 58.1297 187.762 58.1297 189.243C58.1297 192.05 59.2603 195.252 60.8291 199.681C62.3414 203.954 64.2352 209.272 65.8181 216.31C66.4682 219.173 66.7368 222.516 66.765 226.014H68.1925C68.1501 222.432 67.8674 218.99 67.189 216.014C65.5779 208.891 63.684 203.531 62.1576 199.229C60.6312 194.941 59.5289 191.838 59.5289 189.271C59.5289 188.03 59.9953 186.69 60.603 185.012C62.4262 179.849 65.1821 172.064 59.2038 154.842C59.7126 152.387 64.1787 130.44 64.3624 124.263C64.5179 118.734 64.4048 66.3204 64.3624 50.3821C64.3624 49.691 64.6309 49.0421 65.1115 48.5626C65.6061 48.0689 66.2562 47.8009 66.9488 47.8009C68.3762 47.8009 69.5351 48.9575 69.5351 50.3821V124.573C69.7895 125.574 75.2591 148.805 78.0292 154.024C77.1953 155.984 73.1674 166.013 73.8316 175.054C74.1708 179.751 75.0753 183.037 75.8103 185.66C76.5876 188.453 77.1388 190.47 76.5311 192.628C76.3332 193.333 75.9799 194.377 75.5276 195.731C73.4783 201.867 69.5917 213.475 68.6447 226.014H70.0581C71.005 213.687 74.8351 202.234 76.8703 196.183C77.3366 194.814 77.69 193.728 77.8878 193.023C78.5945 190.484 77.9726 188.199 77.167 185.294C76.4604 182.727 75.57 179.525 75.2308 174.955C74.5383 165.448 79.4142 154.376 79.4566 154.263L79.6121 153.925L79.4284 153.615C76.9127 149.425 71.33 125.871 70.9626 124.319V50.368C70.9626 48.1676 69.1677 46.3763 66.9629 46.3763C65.8888 46.3763 64.8712 46.7995 64.1221 47.547C63.3731 48.2946 62.9491 49.3101 62.9632 50.368C63.0056 66.2922 63.1045 118.691 62.9632 124.206C62.7936 130.483 57.847 154.489 57.8046 154.729L57.7622 154.912L57.8329 155.096C63.7405 171.993 61.0694 179.525 59.3027 184.518H59.2745Z" fill="white"/>
<path d="M115.793 201.133C117.843 208.214 119.779 214.914 120.655 222.728C120.782 223.828 120.867 224.914 120.952 226H122.365C122.28 224.858 122.181 223.715 122.054 222.573C121.178 214.646 119.213 207.89 117.15 200.738C115.906 196.465 114.634 192.036 113.574 187.283C112.175 177.48 112.175 166.252 113.56 156.52C115.327 149.482 118.154 143.092 121.15 136.322C122.888 132.415 124.669 128.367 126.266 124.122C131.001 109.001 131.962 93.6554 132.894 78.8172C133.361 71.4263 133.841 63.7957 134.774 56.2637C135.82 42.695 132.993 28.9852 130.266 15.7268C129.29 10.9876 128.287 6.09324 127.467 1.31174L126.068 1.55152C126.888 6.36123 127.891 11.2697 128.866 16.0089C131.58 29.1686 134.378 42.7796 133.361 56.1227C132.414 63.6687 131.933 71.3276 131.467 78.7326C130.548 93.4861 129.587 108.733 124.909 123.67C123.34 127.845 121.56 131.865 119.835 135.758C116.811 142.585 113.956 149.031 112.147 156.252C110.734 166.182 110.734 177.564 112.147 187.536C113.221 192.374 114.507 196.831 115.751 201.133H115.793Z" fill="white"/>
</g>
<defs>
<clipPath id="clip0_52_204">
<rect width="135" height="226" fill="white"/>
</clipPath>
</defs>
</svg>
