<svg width="54" height="54" viewBox="0 0 54 54" fill="none" xmlns="http://www.w3.org/2000/svg">
<g clip-path="url(#clip0_8_433)">
<path d="M34.6049 0C35.0117 0.113908 35.1412 0.750755 35.1386 1.14167C35.1153 4.71681 32.4697 10.4536 33.6124 13.8061C33.8379 14.4637 36.613 18.8155 37.0224 19.0278C42.6582 17.1949 49.0403 19.1624 52.1212 24.3089C57.2543 32.8831 51.2531 43.1839 41.4455 43.5024C40.9429 46.3863 40.8418 49.7699 40.1189 52.5762C40.0075 53.0033 39.8883 53.6039 39.4011 53.7489H16.7698C16.5807 53.6919 16.3915 53.547 16.306 53.3709C16.0832 52.9127 16.1454 49.0295 16.1946 48.214C16.2101 47.9318 16.6066 46.451 16.5159 46.4355C15.8344 46.3035 14.829 46.5313 14.0983 46.4355C14.5026 48.3383 14.6917 50.4792 14.5259 52.4312C14.4274 53.6013 14.3315 53.6971 13.1603 53.7955C10.2686 54.0388 4.20783 54.0932 1.3705 53.7877C0.948138 53.7411 0.217428 53.5754 0.217428 53.0525V29.5202C0.217428 29.484 0.541324 29.15 0.64238 29.1034C3.22319 29.0905 5.90764 29.6522 8.52731 29.8335C14.3341 30.2347 20.838 30.1312 26.6085 29.4141C27.0464 29.3597 28.8188 29.1474 28.9794 28.9455C29.7516 25.1425 31.9955 21.57 35.5584 19.8458C34.6282 17.6453 32.6641 16.1102 32.0707 13.6637C31.3037 10.4976 33.0942 5.92579 33.4181 2.59917C33.4544 2.2212 33.4622 1.84841 33.4466 1.47044H1.6918V26.789C1.6918 27.2446 0.391036 27.9436 0.209654 25.958C0.738253 18.0026 -0.461459 9.21099 0.209654 1.35654C0.248522 0.903495 0.339213 0 0.955912 0H34.6049ZM52.5461 30.8871C52.5461 24.7594 47.5737 19.7889 41.4378 19.7889C35.3019 19.7889 30.3294 24.7568 30.3294 30.8871C30.3294 37.0174 35.3019 41.9853 41.4378 41.9853C47.5737 41.9853 52.5461 37.0174 52.5461 30.8871ZM28.8188 30.4677C19.9596 31.8165 10.8671 31.7802 1.99756 30.5221C1.57002 30.5972 1.61148 32.676 1.68921 33.0954C1.7825 33.5898 4.0109 34.747 4.61724 35.213C7.87952 37.7138 9.89027 41.8404 12.738 44.1211C14.3082 45.3793 16.5625 45.3249 18.0758 44.002C21.4339 41.0637 23.0897 37.1831 27.2848 34.2914C27.5957 34.0765 28.9457 33.4604 28.9976 33.3775C29.3318 32.8494 28.6607 31.1615 28.8214 30.4703L28.8188 30.4677ZM17.6741 47.5927C17.4461 48.9648 17.8426 50.8805 17.6741 52.3199H38.7041L39.9634 43.2875C35.2889 42.8448 30.8995 39.4405 29.6583 34.8816C27.4921 35.4797 25.6031 37.4446 24.0847 39.0807C22.7762 40.489 17.9281 46.0679 17.6741 47.5927ZM13.0463 52.3199V48.0121C13.0463 46.4873 7.34056 39.8444 6.00351 38.449C4.77012 37.1624 3.28537 35.899 1.68921 35.0913V52.3199H13.0463Z" fill="white"/>
<path d="M15.3138 25.1581C16.586 25.1581 17.6174 24.1277 17.6174 22.8566C17.6174 21.5856 16.586 20.5552 15.3138 20.5552C14.0416 20.5552 13.0103 21.5856 13.0103 22.8566C13.0103 24.1277 14.0416 25.1581 15.3138 25.1581Z" fill="white"/>
<path d="M50.8491 30.8872C50.8491 36.0803 46.6359 40.2871 41.4406 40.2871C36.2453 40.2871 32.032 36.0777 32.032 30.8872C32.032 25.6966 36.2453 21.4872 41.4406 21.4872C46.6359 21.4872 50.8491 25.6966 50.8491 30.8872ZM49.3903 30.8872C49.3903 26.4991 45.83 22.9421 41.438 22.9421C37.046 22.9421 33.4857 26.4991 33.4857 30.8872C33.4857 35.2752 37.046 38.8322 41.438 38.8322C45.83 38.8322 49.3903 35.2752 49.3903 30.8872Z" fill="white"/>
<path d="M47.6672 30.8871C47.6672 34.325 44.8791 37.1106 41.438 37.1106C37.997 37.1106 35.2089 34.325 35.2089 30.8871C35.2089 27.4491 37.997 24.6636 41.438 24.6636C44.8791 24.6636 47.6672 27.4491 47.6672 30.8871ZM46.2524 30.8923C46.2524 28.2361 44.0966 26.0822 41.438 26.0822C38.7795 26.0822 36.6236 28.2361 36.6236 30.8923C36.6236 33.5484 38.7795 35.7023 41.438 35.7023C44.0966 35.7023 46.2524 33.5484 46.2524 30.8923Z" fill="white"/>
<path d="M44.5345 30.8871C44.5345 32.5957 43.1482 33.9781 41.4406 33.9781C39.733 33.9781 38.3467 32.5931 38.3467 30.8871C38.3467 29.181 39.733 27.796 41.4406 27.796C43.1482 27.796 44.5345 29.181 44.5345 30.8871ZM43.0653 30.8845C43.0653 29.9887 42.3371 29.2613 41.4406 29.2613C40.5441 29.2613 39.8159 29.9887 39.8159 30.8845C39.8159 31.7802 40.5441 32.5077 41.4406 32.5077C42.3371 32.5077 43.0653 31.7802 43.0653 30.8845Z" fill="white"/>
</g>
<defs>
<clipPath id="clip0_8_433">
<rect width="54" height="54" fill="white"/>
</clipPath>
</defs>
</svg>
