<svg width="54" height="55" viewBox="0 0 54 55" fill="none" xmlns="http://www.w3.org/2000/svg">
<g clip-path="url(#clip0_8_460)">
<path d="M18.1115 2.37007C22.3257 10.447 30.0269 20.4356 27.5467 30.0768C27.2309 31.3043 24.9309 36.9731 23.8964 37.2821C23.3135 37.4569 22.8069 37.2928 22.65 36.6875C22.4931 36.0823 24.3458 33.2138 24.721 32.3507C29.391 21.6418 20.3415 11.0054 15.6652 1.95663C15.3218 0.769595 15.6207 0.426484 16.7548 0.262388C22.2621 -0.534652 29.4949 0.825004 35.1865 0.232552C36.0599 0.20911 36.4966 0.560745 36.8739 1.30664C38.485 4.49906 39.6466 9.46457 41.1178 13.0235C43.6552 19.159 45.3574 21.9018 49.5928 26.8801C53.0141 30.9015 55.1615 36.2933 49.6245 39.7052C47.0469 41.295 44.0473 42.3819 41.4421 43.9504C42.7182 47.4817 42.0335 51.4029 38.7393 53.4829C35.3392 55.6289 31.9835 54.6891 29.0645 52.2746C25.8954 54.2139 22.3002 54.6508 18.6478 54.8085C14.3997 54.9917 8.39004 55.1345 4.21614 54.8063C2.07937 54.638 0.107946 53.5852 0.00195593 51.2069C-0.182467 47.1023 4.77152 47.4177 7.51244 46.8082C9.90782 46.2754 12.14 45.4081 14.2979 44.253C15.0356 43.8566 17.5942 41.5614 18.0818 43.0063C18.4655 44.1465 16.2778 45.3015 15.4193 45.8045C11.2581 48.2446 8.14838 48.3703 3.68194 49.3485C1.29292 49.8706 1.32684 52.4472 3.58019 52.6752C9.5093 52.3023 15.962 53.1377 21.8275 52.6731C22.8026 52.5964 27.6527 51.3923 28.0449 50.7124C28.1551 50.5206 27.4704 48.4939 27.4302 47.8781C27.038 41.8214 33.3868 38.0855 38.6079 41.116C39.123 41.4144 40.1554 42.5268 40.6344 42.4053L49.5588 37.5016C50.1036 37.0669 50.6505 36.2592 50.8244 35.5772C52.075 30.714 47.8693 28.4039 45.3722 25.1518C40.5496 18.8713 37.991 9.75441 35.2819 2.37007H18.1115ZM40.166 47.3346C40.166 44.3297 37.743 41.8917 34.752 41.8917C31.7609 41.8917 29.338 44.3276 29.338 47.3346C29.338 50.3416 31.7609 52.7775 34.752 52.7775C37.743 52.7775 40.166 50.3416 40.166 47.3346Z" fill="white"/>
<path d="M48.8256 45.6486C48.427 45.3737 46.6273 47.2789 45.9723 47.3407C45.0396 47.4281 44.7428 46.3561 45.3364 45.6124C45.4911 45.4184 48.3931 43.3704 48.586 43.3214C49.6989 43.0359 50.2988 44.9666 50.6507 44.9688C51.1404 44.9688 52.4695 42.8547 53.5146 43.3854C55.1956 44.2378 51.4902 47.0189 50.7631 47.2512C49.4933 47.6561 49.2538 45.9427 48.8277 45.6486H48.8256Z" fill="white"/>
<path d="M50.3603 53.1204C49.8536 53.4123 49.9936 54.9702 48.3719 54.5312C48.179 54.48 45.2388 52.4107 45.1434 52.236C44.8636 51.7287 44.8954 50.8592 45.5695 50.7378C46.8711 50.5034 47.7847 52.2338 48.5372 52.2402C49.2898 52.2466 49.3597 50.4224 50.8097 50.7911C50.9983 50.8379 53.7308 52.9286 53.8304 53.0905C54.1251 53.5786 54.0678 54.4672 53.4043 54.5887C52.124 54.8253 51.0598 52.7176 50.3624 53.1204H50.3603Z" fill="white"/>
<path d="M35.6467 21.5797C37.0097 21.2025 39.4941 24.3565 39.8015 25.6373C40.058 26.7136 40.2234 31.8155 38.2498 30.8266C37.2853 30.3429 38.006 29.0876 38.0442 28.2714C38.1205 26.6795 38.0315 25.5073 36.8783 24.3139C36.4459 23.8664 35.246 23.3634 35.1019 22.8946C34.9577 22.4257 35.1104 21.7289 35.6446 21.5818L35.6467 21.5797Z" fill="white"/>
<path d="M37.8131 47.3344C37.8131 49.0329 36.4437 50.4096 34.7543 50.4096C33.0648 50.4096 31.6954 49.0329 31.6954 47.3344C31.6954 45.6359 33.0648 44.2592 34.7543 44.2592C36.4437 44.2592 37.8131 45.6359 37.8131 47.3344ZM35.918 47.3344C35.918 46.6865 35.3966 46.1622 34.7521 46.1622C34.1077 46.1622 33.5862 46.6865 33.5862 47.3344C33.5862 47.9822 34.1077 48.5065 34.7521 48.5065C35.3966 48.5065 35.918 47.9822 35.918 47.3344Z" fill="white"/>
</g>
<defs>
<clipPath id="clip0_8_460">
<rect width="54" height="55" fill="white"/>
</clipPath>
</defs>
</svg>
