<svg width="62" height="47" viewBox="0 0 62 47" fill="none" xmlns="http://www.w3.org/2000/svg">
<g clip-path="url(#clip0_4_151)">
<path d="M46.57 15.96C46.65 17.16 45.88 18.38 46.6 19.52C47.64 21.06 55.96 30.66 55.89 31.51C55.89 31.61 54.52 32.34 54.41 32.72L45.5 22.09L43.4 35.29L44.45 45.6L42.31 46.02C41.94 42.19 41.33 38.33 41.28 34.49L44.44 15.7L46.57 15.97V15.96Z" fill="white"/>
<path d="M27.41 0V3.86L10.25 14.63L1.88 27.01C1.32 27.38 0 26.44 0 25.95C0 24.99 7.61 14.93 8.51 13.16L25.01 2.79C25.6 2.37 25.09 0.19 25.28 0H27.41Z" fill="white"/>
<path d="M33.79 0H35.92C36.03 0.82 35.63 2.18 36.18 2.8L52.42 12.9C53.44 14.57 61.2 25.05 61.2 25.95C61.2 26.44 59.88 27.38 59.32 27.02L50.94 14.64L33.79 3.99V0Z" fill="white"/>
<path d="M16.77 15.7L19.96 34.72C19.7 38.49 19.46 42.35 18.75 46.04L16.75 45.6L17.8 35.29L14.63 15.97L16.76 15.7H16.77Z" fill="white"/>
<path d="M55.08 37.51L52.02 43.35L50.16 41.5C49.81 41.5 48.72 43.64 48.69 44.16L46.57 43.36L49.23 37.78C49.65 37.47 51.07 39.36 51.49 39.64L52.96 36.72L55.08 37.52V37.51Z" fill="white"/>
<path d="M8.25001 36.71L9.72002 39.63C10.14 39.35 11.55 37.47 11.98 37.77L14.64 43.35L12.52 44.15L11.32 41.49L9.06002 43.23L6.14001 37.64L8.26002 36.71H8.25001Z" fill="white"/>
<path d="M12.8097 21.5015L5.12042 31.4074L6.99258 32.8606L14.6819 22.9548L12.8097 21.5015Z" fill="white"/>
<path d="M38.93 15.02C38.93 19.73 35.11 23.54 30.41 23.54C25.71 23.54 21.89 19.72 21.89 15.02C21.89 10.32 25.71 6.5 30.41 6.5C35.11 6.5 38.93 10.32 38.93 15.02ZM37.32 15.02C37.32 11.2 34.22 8.11 30.41 8.11C26.6 8.11 23.5 11.21 23.5 15.02C23.5 18.83 26.6 21.93 30.41 21.93C34.22 21.93 37.32 18.83 37.32 15.02Z" fill="white"/>
<path d="M35.21 17.7L33.68 17.13C35.73 13.64 31.73 9.52999 28.29 11.84C24.85 14.15 27.08 19.46 31.03 18.82C32.55 18.57 32.73 17.09 34.06 18.96C28.57 24.07 21.23 15.37 27.03 10.77C31.69 7.06999 37.89 12.48 35.21 17.7Z" fill="white"/>
<path d="M30.4 17.37C31.6979 17.37 32.75 16.3179 32.75 15.02C32.75 13.7221 31.6979 12.67 30.4 12.67C29.1021 12.67 28.05 13.7221 28.05 15.02C28.05 16.3179 29.1021 17.37 30.4 17.37Z" fill="white"/>
</g>
<defs>
<clipPath id="clip0_4_151">
<rect width="61.21" height="46.03" fill="white"/>
</clipPath>
</defs>
</svg>
