<svg width="51" height="52" viewBox="0 0 51 52" fill="none" xmlns="http://www.w3.org/2000/svg">
<g clip-path="url(#clip0_8_447)">
<path d="M0 5.61628C0.129391 5.1464 0.871897 5.08159 1.28595 5.10387C6.22272 5.36514 12.6425 6.22793 17.5932 6.95907C18.3039 7.06439 19.769 7.07452 19.6575 8.01225C19.546 8.94998 18.5507 8.75757 17.8082 8.76365L1.59251 6.93275V14.629H14.5316C14.5575 14.629 14.5595 14.2989 14.7247 14.1267C16.8049 11.9475 19.97 11.6356 21.1982 14.8356C21.6461 16.0022 23.0057 22.5157 23.0993 23.8382C23.4636 29.0028 18.9946 28.1015 16.2197 25.5739C15.8494 25.2357 14.7526 23.745 14.6331 23.745H8.8603C8.25316 23.745 8.25316 22.1248 8.8603 22.1248H15.4294C16.3053 23.3096 19.5779 27.0139 21.0967 25.661C22.1159 24.7537 20.6528 20.8974 20.3622 19.5364C20.0496 18.0721 20.2407 14.3556 18.2123 14.2138C16.1838 14.0721 15.6006 16.2513 15.2303 16.2513H1.59251V22.1248H6.66862C7.18419 22.1248 6.97318 23.745 6.46955 23.745H1.59251V29.0109H12.2424C12.5808 29.0109 14.227 30.0094 14.5296 30.3294C15.5389 31.3988 15.6543 33.335 15.734 34.775C16.0126 39.8444 15.509 45.1812 15.726 50.2769H19.9063V37.6186C19.9063 37.4971 18.5845 36.3325 18.3078 35.8019C17.3703 34.0155 17.6927 31.7674 19.3052 30.5238C21.2858 28.9967 22.7091 30.3011 24.5883 30.2383C26.6446 30.1694 28.4621 28.7051 30.164 30.8297C32.1766 33.3431 30.8229 36.1016 28.8701 38.0378C28.6372 38.2687 28.269 38.2951 28.269 38.3275V50.2769H31.454L32.6285 42.4591C32.7857 41.7219 33.8806 41.8394 34.1453 42.3781L32.5488 51.8972H14.4341C14.2947 51.8972 14.1653 51.559 14.1355 51.3909C13.8608 49.8678 14.1892 47.0303 14.1434 45.3068C14.1315 44.8268 13.9384 44.3852 13.9285 43.9052C13.8608 40.6444 14.3783 35.7674 13.9245 32.7699C13.7792 31.8059 12.5808 30.6312 11.6472 30.6312H0.298595C0.276698 30.6312 0 30.3497 0 30.3274V5.61628ZM26.6745 50.2749V37.6166C26.6745 37.3877 29.2125 36.0206 29.4136 34.1168C29.8436 30.0459 26.2345 31.9821 23.9772 31.8525C22.741 31.7816 21.6382 31.0363 20.5115 31.7532C19.5679 32.3547 19.3032 33.4646 19.55 34.5381C19.761 35.4596 21.4988 36.6545 21.4988 36.8064V50.2749H26.6745Z" fill="white"/>
<path d="M34.5892 40.3001C34.1971 40.766 33.0843 40.5979 33.0405 39.8343C33.2873 37.3796 34.0358 34.7852 34.2369 32.3487C34.4538 29.7117 34.3543 26.7142 34.43 24.0387C34.5574 19.5951 34.7305 16.7698 31.5535 13.2093C28.8164 10.1409 25.1994 9.41784 21.3017 9.05733C20.2288 7.74897 21.4212 7.49175 22.5917 7.54238C28.1316 7.77732 33.2993 10.9004 35.3297 16.2533C36.8028 20.1359 36.2355 28.62 35.8274 32.9563C35.7458 33.8211 34.8261 40.0166 34.5872 40.3001H34.5892Z" fill="white"/>
<path d="M46.3817 14.0254C46.8595 14.8983 48.7486 15.7308 47.3711 16.7536L38.9586 20.2635C36.6276 20.1055 40.9732 15.674 40.9732 15.1353C40.9732 14.7586 39.1716 14.1105 39.7569 13.274L45.5894 7.04005C45.9478 6.7808 46.3638 6.60257 46.7739 6.82941C47.389 7.82385 50.8367 10.2077 50.9661 11.0968C50.994 11.2851 50.9821 11.4715 50.9283 11.6517C50.7472 12.2573 47.1879 13.8209 46.3817 14.0234V14.0254ZM48.7705 11.1839L46.2822 8.75956L41.8072 13.515C44.0228 14.9145 42.4104 15.6275 41.6042 17.2599L45.3864 15.8422C45.7646 15.3075 43.6127 14.6999 44.0865 13.6244C44.3712 12.9763 47.9384 11.6234 48.7705 11.1839Z" fill="white"/>
<path d="M38.0211 4.50029C39.2174 4.53674 40.3203 4.08104 39.9679 5.7722L37.1969 12.2715C35.0252 14.3333 35.5567 8.71298 35.0331 8.34842C34.9455 8.28766 33.5362 9.09172 33.2913 7.80361C33.1102 6.84968 33.0923 1.71343 33.2873 0.800002C33.3729 0.403036 33.5302 0.12354 33.9403 0.0465771C34.428 -0.044563 38.7835 0.00201973 39.0184 0.145818C39.958 0.721013 38.1982 3.61117 38.0211 4.50029ZM35.0351 1.66684V6.22385C35.0351 6.28663 34.7604 6.50942 34.8361 6.72816C36.7272 6.44866 36.5122 7.2912 36.9262 8.75754L38.0211 6.12461C34.2767 6.81119 36.9939 3.57268 37.2248 1.66887H35.0351V1.66684Z" fill="white"/>
<path d="M46.5828 27.3906C46.5808 28.6929 46.9073 29.4301 45.3366 29.1648C44.8032 29.0757 39.6454 26.8822 39.1438 26.5521C36.3669 24.7273 42.2173 24.4802 42.6115 24.2554C42.926 24.0751 42.0999 22.6108 43.3361 22.3738C44.3374 22.1814 46.3957 22.2665 47.4865 22.3171C48.5774 22.3677 49.8912 22.55 50.8746 22.7181C51.0717 23.0037 51.0358 27.986 50.781 28.3182C50.1102 29.1931 47.602 27.2853 46.5828 27.3906ZM49.3677 24.148H44.3911C44.3254 24.148 44.5265 25.2579 44.2119 25.4847L42.4025 26.1693L44.9863 27.184C44.3413 23.4817 47.5642 26.2159 49.3657 26.3739V24.146L49.3677 24.148Z" fill="white"/>
<path d="M27.0188 15.8927C31.9894 14.8517 32.4393 25.3693 27.9704 25.7784C23.4297 26.1936 23.2346 16.6847 27.0188 15.8927ZM27.6021 17.5069C25.8125 17.671 25.4044 22.8356 27.196 23.9212C28.689 24.8245 29.5151 21.7885 29.4733 20.6017C29.4414 19.674 28.7387 17.4016 27.6001 17.5069H27.6021Z" fill="white"/>
</g>
<defs>
<clipPath id="clip0_8_447">
<rect width="51" height="51.8951" fill="white"/>
</clipPath>
</defs>
</svg>
