<svg width="56" height="56" viewBox="0 0 56 56" fill="none" xmlns="http://www.w3.org/2000/svg">
<g clip-path="url(#clip0_8_455)">
<path d="M5.07744 25.9765C10.4933 23.226 17.1955 25.5988 19.2221 31.3748C22.1681 39.768 13.6402 47.3776 5.57972 43.7016C4.65378 43.2803 4.01392 42.5272 3.22337 42.1233C2.97878 41.9989 3.08797 41.7784 2.78879 42.1364C2.37167 42.6363 1.89997 44.2211 1.82353 44.8847C1.21424 50.2 5.4749 54.6291 10.8362 54.1118C13.6075 53.8433 15.5729 51.6342 18.3944 50.9728C25.6055 49.281 31.7813 54.7929 38.5709 54.114C39.9532 53.9765 42.338 52.8195 43.1831 52.8173C43.847 52.8173 44.6747 53.4875 45.3582 53.7123C46.9764 54.2428 50.4225 54.3606 52.1172 54.1205C54.9867 53.7123 55.1396 49.7067 51.4795 49.34C48.7279 49.0649 47.6229 49.6194 44.8166 48.3599C38.4923 45.5265 31.8709 40.6499 25.7103 37.3341C24.127 35.8933 23.3015 33.8851 23.1858 31.7633L26.0422 1.74632H5.07744V12.9882C5.07744 13.5405 3.33038 13.7719 3.33038 13.2065V0.327434C3.33038 0.303422 3.63393 0 3.65795 0H27.4617C27.8089 0 28.0317 0.827317 28.0186 1.1875C27.6976 10.6591 25.5399 20.7288 25.16 30.2244C25.0289 33.5074 25.3762 34.9984 28.1605 36.8495C33.6769 40.5167 40.3922 43.3654 46.057 46.9017C48.6099 48.3599 52.436 46.6419 54.6373 48.5847C57.1487 50.8025 56.0306 55.4696 52.5823 55.8887C51.2 56.0568 47.6643 56.0306 46.2689 55.8581C45.2032 55.7271 43.8841 54.8387 43.17 54.7929C42.5651 54.7536 40.2895 55.7446 39.2304 55.8559C31.6656 56.6483 24.566 50.6061 17.6869 53.0946C15.5533 53.8651 13.9591 55.5743 11.5001 55.8603C4.42229 56.6811 -0.840743 51.3177 0.115775 44.2626C0.279562 43.0576 1.5309 40.8987 1.54182 40.2351C1.544 40.0561 0.703226 38.515 0.548174 38.0413C-0.419264 35.0748 -0.102608 31.9707 1.544 29.3185C1.8279 28.8622 3.33474 27.3189 3.33474 27.1792V15.3916C3.33474 14.8262 5.08181 15.0576 5.08181 15.6099V25.9786L5.07744 25.9765ZM17.9839 34.7255C17.9839 30.2527 14.3565 26.6291 9.88406 26.6291C5.41157 26.6291 1.78422 30.2549 1.78422 34.7255C1.78422 39.1961 5.41157 42.8219 9.88406 42.8219C14.3565 42.8219 17.9839 39.1961 17.9839 34.7255Z" fill="white"/>
<path d="M16.5119 34.7364C16.5119 38.3971 13.5441 41.3637 9.88182 41.3637C6.21954 41.3637 3.25171 38.3971 3.25171 34.7364C3.25171 31.0757 6.21954 28.1091 9.88182 28.1091C13.5441 28.1091 16.5119 31.0757 16.5119 34.7364ZM14.695 34.7102C14.695 32.0514 12.5395 29.8969 9.87964 29.8969C7.21973 29.8969 5.06429 32.0514 5.06429 34.7102C5.06429 37.369 7.21973 39.5235 9.87964 39.5235C12.5395 39.5235 14.695 37.369 14.695 34.7102Z" fill="white"/>
<path d="M13.2297 34.7211C13.2297 36.5679 11.7315 38.0653 9.88402 38.0653C8.0365 38.0653 6.53839 36.5679 6.53839 34.7211C6.53839 32.8744 8.0365 31.377 9.88402 31.377C11.7315 31.377 13.2297 32.8744 13.2297 34.7211ZM11.4214 34.7081C11.4214 33.8589 10.7335 33.1713 9.88402 33.1713C9.03451 33.1713 8.3466 33.8589 8.3466 34.7081C8.3466 35.5572 9.03451 36.2448 9.88402 36.2448C10.7335 36.2448 11.4214 35.5572 11.4214 34.7081Z" fill="white"/>
</g>
<defs>
<clipPath id="clip0_8_455">
<rect width="56" height="56" fill="white"/>
</clipPath>
</defs>
</svg>
