<svg width="55" height="57" viewBox="0 0 55 57" fill="none" xmlns="http://www.w3.org/2000/svg">
<g clip-path="url(#clip0_4_126)">
<path d="M9.55118 0V13.481C9.55118 18.3279 15.0679 23.3041 18.677 25.9408C21.8737 28.2673 24.7996 30.3225 28.9629 29.8313C33.513 29.2884 45.307 19.5041 45.307 14.5925V0H49.0836V15.032C49.0836 17.2163 46.4155 21.4946 44.9719 23.1619C44.2243 24.0279 42.0846 25.6306 41.9557 26.6V40.8306C42.0588 41.2571 47.7173 42.666 48.0911 43.1959C48.3876 43.6224 47.1631 46.7245 46.9697 46.7374L38.1919 43.6483V29.1721C33.5001 32.8041 28.4603 35.1565 22.531 32.7395L16.8725 29.3918V43.6483L7.77242 46.7633L6.75414 43.1959L13.1216 40.8306V26.8197C12.9927 25.8762 11.1495 24.532 10.4535 23.7048C8.23644 21.081 5.78741 17.2551 5.78741 13.6878V0H9.56407H9.55118Z" fill="white"/>
<path d="M7.55334 50.3435H19.4376C19.7083 50.3435 23.2271 54.0143 23.3045 54.2857C23.472 54.9449 21.4355 56.4571 20.9714 57.0129L17.8522 54.1823C14.836 53.8333 11.2784 54.4925 8.33961 54.1435C8.12049 54.1177 7.57912 54.0401 7.57912 53.7946V50.3435H7.55334Z" fill="white"/>
<path d="M47.3178 50.3435V54.1306H37.2123C37.0061 54.1306 34.802 56.7415 34.2993 57.0129L31.5538 54.4667L35.6527 50.3435H47.3178Z" fill="white"/>
<path d="M53.9689 49.219L50.4242 48.0946C50.1277 47.7585 51.5327 44.9796 51.5327 44.3204L54.9871 45.6517L53.9689 49.219Z" fill="white"/>
<path d="M1.13429 48.9864L0 45.4449L3.33841 44.4238L4.62737 47.7843C4.61448 47.9911 1.45653 49.219 1.1214 48.9864H1.13429Z" fill="white"/>
</g>
<defs>
<clipPath id="clip0_4_126">
<rect width="55" height="57" fill="white"/>
</clipPath>
</defs>
</svg>
