<svg width="55" height="55" viewBox="0 0 55 55" fill="none" xmlns="http://www.w3.org/2000/svg">
<g clip-path="url(#clip0_8_440)">
<path d="M31.812 27.1935C32.9783 34.2811 32.754 41.674 31.2643 48.7068C31.0377 49.7732 29.9989 54.3678 29.2151 54.7471C27.3525 54.6016 18.2255 55.3793 17.1726 54.7471C16.9153 54.5945 16.7618 54.0768 16.717 53.7762C15.1494 43.2819 15.435 31.9146 13.8722 21.344C13.7848 12.398 20.4447 9.36826 28.1551 8.58578C35.8656 7.8033 44.603 6.95164 52.2237 6.66537C53.8763 6.60335 54.5585 6.34809 54.7238 8.21363C55.0921 12.3765 55.0992 20.7762 54.7238 24.9343C54.5562 26.7879 53.1208 27.1935 51.5084 27.6491C45.4788 29.3453 37.9171 28.0308 31.8144 27.1911L31.812 27.1935ZM52.5873 8.82434L26.5026 10.7352C20.4518 11.4891 15.3335 15.0865 15.9828 21.8378L18.5891 52.3639L18.811 52.8554L28.0088 52.9341C28.6202 50.8181 29.1797 48.6996 29.5716 46.524C30.3908 41.9794 30.7969 36.4138 30.3908 31.8501C30.2138 29.8606 29.3403 27.5418 29.2246 25.8504C29.0759 23.7009 31.897 25.242 33.179 25.4567C37.733 26.213 46.1281 26.9907 50.5145 25.9386C50.9016 25.8456 52.5873 25.3446 52.5873 24.9319V8.82434Z" fill="white"/>
<path d="M11.9033 0.0215013C12.9326 -0.310097 16.3369 3.18242 16.2354 4.1629C16.1457 5.03603 14.8685 5.30322 14.3396 5.84714C14.1909 6.47693 17.1443 8.15163 16.8421 9.30864C16.6178 10.1579 15.8529 10.2056 15.1541 9.79292C14.8708 9.62593 11.6247 6.2837 11.5491 6.03321C11.0982 4.50643 12.8523 4.46826 13.629 3.7001C13.0931 3.11085 9.97212 0.648914 11.9033 0.0286581V0.0215013Z" fill="white"/>
<path d="M10.0335 8.64063C11.0439 9.63303 8.86018 11.2934 9.14584 11.6823C10.1256 12.1642 12.9349 12.3025 12.9444 13.7124C12.9515 14.7334 12.248 14.6118 11.4453 14.4925C10.9896 14.4233 7.10137 13.085 6.88889 12.8941C5.66363 11.8063 7.93001 9.97895 7.72934 9.77856C6.94791 9.67836 4.63667 9.01994 4.29435 8.34243C3.95203 7.66492 4.52335 6.92299 5.24576 6.94685C5.64238 6.95878 9.83283 8.44262 10.0335 8.64063Z" fill="white"/>
<path d="M6.07912 18.3667C6.32465 18.6363 11.5539 15.6733 10.7701 18.4383C10.5954 19.0537 5.80054 20.9073 5.02147 20.7642C4.09367 20.5948 4.17866 18.9297 4.19047 18.1305C3.10685 18.1281 2.07517 19.1587 1.00336 19.1086C-0.0684514 19.0585 -0.363554 17.7774 0.578413 17.2216C1.1639 16.8757 4.68624 15.6328 5.25047 15.7354C6.12634 15.8928 6.05787 17.6319 6.08148 18.3715L6.07912 18.3667Z" fill="white"/>
<path d="M42.6222 11.9947C43.491 11.9566 45.6488 11.4985 45.5142 12.9848C45.4576 13.6098 44.9807 13.7124 44.4802 13.8722C41.8927 14.6952 37.5229 14.0344 34.7513 14.7525C33.3985 14.7167 33.3607 12.9705 34.3358 12.6866C37.1003 12.5888 39.8624 12.114 42.6222 11.9947Z" fill="white"/>
</g>
<defs>
<clipPath id="clip0_8_440">
<rect width="55" height="55" fill="white"/>
</clipPath>
</defs>
</svg>
