<svg width="53" height="36" viewBox="0 0 53 36" fill="none" xmlns="http://www.w3.org/2000/svg">
<g clip-path="url(#clip0_8_222)">
<path d="M21.6556 9.402C21.9226 10.0091 20.8961 11.8058 21.0714 12.052C21.4219 12.536 24.4345 13.4631 25.1772 13.5451C26.5625 13.701 29.9172 12.7657 30.1759 14.3409C30.6433 17.2042 24.3594 16.1869 22.707 15.6864C22.0227 15.4731 19.6527 14.1768 19.4191 14.2179C19.0936 14.2835 18.5762 15.0629 18.1089 15.3254C15.2048 16.9827 13.3605 16.2197 10.4814 17.0729C6.03345 18.3938 3.22948 22.4467 2.82891 26.8687C2.61194 29.2808 3.23783 32.7429 2.82057 34.917C2.61194 36 1.41859 36.2871 0.592416 35.6964C-0.617629 34.835 0.300336 24.9818 0.851116 23.1358C2.12792 18.8778 6.25042 15.1942 10.6483 14.2507C13.3021 13.6846 16.1227 14.4148 17.9587 11.8879C18.4927 11.1495 19.369 9.04102 18.8683 8.25342C18.7681 8.09754 16.2396 6.80128 15.5803 6.268C13.6275 4.701 11.7833 2.40383 10.64 0H13.6693C18.9935 9.76299 33.9313 9.91887 39.3639 0H42.4433C38.9968 7.40839 29.8171 11.9863 21.6556 9.402Z" fill="white"/>
<path d="M52.5577 35.598C52.0153 36.2133 50.5465 36.0985 50.2628 35.1632C49.7287 33.3911 50.3963 28.8788 50.1626 26.6062C49.7537 22.5369 47.1751 18.7384 43.2111 17.3191C40.3821 16.3017 37.5031 17.0155 34.9161 15.3255C33.898 14.6609 31.2692 12.2735 32.7129 11.1659C34.2985 9.9435 34.9077 11.9781 35.7673 12.6919C37.6616 14.2589 40.0984 13.7584 42.3766 14.2589C47.4505 15.3747 51.5479 19.5588 52.5493 24.5634C52.8832 26.2124 53.3672 34.6709 52.5577 35.598Z" fill="white"/>
<path d="M40.7159 29.773C41.2917 30.3145 40.9246 31.4138 40.3571 31.8158C39.6728 32.2917 35.1748 32.3163 34.6991 31.5943C32.6963 28.5588 40.0567 29.1495 40.7243 29.773H40.7159Z" fill="white"/>
</g>
<defs>
<clipPath id="clip0_8_222">
<rect width="53" height="36" fill="white"/>
</clipPath>
</defs>
</svg>
