<svg width="48" height="54" viewBox="0 0 48 54" fill="none" xmlns="http://www.w3.org/2000/svg">
<path d="M47.8233 0C47.6157 8.08045 48.0916 16.2118 47.8334 24.2871C47.6816 29.1059 47.0184 33.945 46.8007 38.7587C46.5577 44.1117 48.5675 52.2176 40.8779 52.8893C31.8873 53.6729 18.5684 51.4187 9.83093 48.9966C8.65142 48.6709 0.329037 46.1776 0.0202382 45.7604C-0.0354468 45.6891 0.465718 44.0456 0.541653 43.9947C0.815015 43.7962 6.01397 45.8112 6.90999 46.086C14.149 48.3198 21.5653 49.7497 29.103 50.5944C29.8877 48.1367 29.675 44.8648 32.2163 43.4197C33.5376 42.6717 34.7677 42.9719 35.8713 42.519C37.3444 41.9186 37.5823 39.8527 40.1438 39.6746C42.3004 39.527 43.0648 41.0943 44.7859 41.6896C45.0694 39.5474 44.9024 37.3543 45.0441 35.212C45.2365 32.2658 45.7022 29.2687 45.8085 26.3225C46.1325 17.5857 45.5453 8.74194 45.7984 0L47.8233 0ZM31.1279 50.5893C37.1216 50.63 46.583 53.4032 44.6746 43.7097C42.8319 43.5876 41.8397 41.4759 40.1286 41.6947C38.9694 41.8473 38.0936 43.5011 36.9597 44.1168C35.608 44.8546 34.5652 44.4933 33.4717 44.9309C31.619 45.6739 31.5785 48.9203 31.133 50.5842L31.1279 50.5893Z" fill="white"/>
</svg>
