<svg width="51" height="58" viewBox="0 0 51 58" fill="none" xmlns="http://www.w3.org/2000/svg">
<g clip-path="url(#clip0_8_426)">
<path d="M16.09 5.72005C16.5 3.70005 19.63 2.49005 21.41 3.61005C21.1 0.0800548 25.7 -1.25995 27.74 1.39005C28.04 1.78005 28.42 2.88005 28.64 2.93005C28.88 2.98005 29.69 2.48005 30.36 2.52005C33.24 2.67005 34.19 5.55006 33.83 8.05006C36.17 6.69006 39 8.38005 39.16 11.0301C38.42 20.9701 41.2 37.9201 35.34 46.4701C34.72 47.3701 33.46 48.2701 33.21 49.4401C32.88 51.0401 33.56 55.3201 33.05 56.3701C32.87 56.7401 32.53 56.7801 32.17 56.8201C27.46 57.4301 21.48 56.3401 16.63 56.8201C15.92 56.8001 15.72 56.4801 15.63 55.8201C15.29 53.2101 16.13 50.4901 15.2 47.8201C14.67 46.2801 13.48 45.2901 12.61 43.9801C12.27 43.4701 10.87 41.3001 10.79 40.9101C10.61 40.0301 11.37 39.5001 12.16 39.7701C12.53 39.9001 15.75 45.5501 16.56 46.2401C16.97 47.0601 17.63 49.1901 17.63 50.0501V55.0401H31.37V48.9401C31.37 48.0201 33.61 45.7301 34.21 44.6801C36.4 40.8301 37.17 33.8701 37.37 29.4401C37.59 24.3801 37.83 16.6101 37.37 11.6901C37.09 8.70006 34.04 8.63006 33.8 11.2401C33.59 13.6101 34.21 17.0601 33.8 19.2301C33.58 20.3801 32.03 20.0701 32.03 19.6801V6.16005C32.03 6.09005 31.57 5.06005 31.47 4.95005C30.64 4.00005 28.83 4.45005 28.53 5.77005L28.48 26.1201C28.49 27.2301 27.64 27.6601 26.81 26.8901L26.68 3.74005C26.41 1.81005 24.48 1.02005 23.32 2.78005C22.93 10.2201 23.27 17.7501 23.15 25.2201C22.93 26.3701 21.38 26.0601 21.38 25.6701V6.61005C21.38 5.14005 18.85 4.50005 18.04 5.93005C17.29 7.27005 18.28 11.7501 17.78 13.4301C17.56 14.1601 16.44 14.2601 16.05 13.7001C16.37 11.3901 15.62 7.87005 16.05 5.72005H16.09Z" fill="white"/>
<path d="M16.09 15.81C16.29 15.5 17.93 15.46 17.86 16.37C17.6 20.6 18.23 25.28 17.88 29.45C17.7 31.54 15.16 31.87 13.51 31.14C10.54 29.85 10.24 23.58 5.90002 24.45C6.71002 27 7.68002 29.5 8.68002 31.98C9.11002 33.04 11.26 37.3 11.13 37.99C10.99 38.71 9.87002 38.8 9.44002 38.26C8.15002 35.41 6.83002 32.54 5.74002 29.61C5.15002 28.01 2.98002 23.81 5.08002 22.85C7.18002 21.89 9.64002 23.1 11 24.79C11.79 25.76 13.13 28.68 13.89 29.21C14.42 29.58 16.1 29.77 16.1 29.21V15.8L16.09 15.81Z" fill="white"/>
<path d="M7.67 7.61004C8.26 7.27004 10.4 6.06004 10.74 7.09004C10.54 10.31 11.43 14.11 11 17.27C10.5 20.99 6.92 13.93 6.56 13.7C6.06 13.39 4.77 14.96 3.89 13.95L0 4.95004L0.29 4.04004C2.48 3.29004 4.61 1.74004 6.85 1.42004C7.21 1.54004 7.38 2.06004 7.43 2.40004C7.66 3.98004 7.59 5.98004 7.67 7.60004V7.61004ZM9 13.81V9.15004C8.19 9.20004 6.55 10.49 6.01 9.37004C5.68 8.69004 5.87 4.03004 5.68 3.83004C4.44 4.06004 3.29 4.80004 2.13 5.28004L5.02 12.03C7.71 10.5 7.42 12.16 9.01 13.8L9 13.81Z" fill="white"/>
<path d="M47.57 9.82003C48.42 10.03 49.73 10.53 49.23 11.59L42.68 17.47C39.73 18.02 42.73 13.33 42.45 12.4C42.26 11.79 40.77 12.26 40.91 10.84L44.51 3.23003C45 2.84003 45.39 3.01003 45.9 3.16003C46.41 3.31003 49.89 4.91003 50.3 5.19003C52.11 6.42003 48.1 8.63003 47.56 9.82003H47.57ZM48.23 6.28003L45.57 5.17003C45.47 6.18003 43.08 9.76003 43.13 10.38C43.15 10.61 43.9 10.74 44.13 10.93C45.1 11.71 44.12 12.88 44.01 13.82L46.66 11.49C46.66 11.13 44.34 11.02 45 9.61003C45.19 9.21003 48.37 6.48003 48.22 6.28003H48.23Z" fill="white"/>
<path d="M32.05 21.79C32.24 21.49 33.82 21.54 33.82 22.12V27.88C33.82 28.56 32.05 28.56 32.05 27.88C32.05 27.03 31.89 22.04 32.05 21.78V21.79Z" fill="white"/>
</g>
<defs>
<clipPath id="clip0_8_426">
<rect width="50.78" height="57.02" fill="white"/>
</clipPath>
</defs>
</svg>
