<svg width="62" height="63" viewBox="0 0 62 63" fill="none" xmlns="http://www.w3.org/2000/svg">
<g clip-path="url(#clip0_8_185)">
<path d="M42.36 51.1C42.36 57.59 37.1 62.85 30.61 62.85C24.12 62.85 18.86 57.59 18.86 51.1C18.86 44.61 24.12 39.35 30.61 39.35C37.1 39.35 42.36 44.61 42.36 51.1ZM40.14 51.1C40.14 45.83 35.87 41.56 30.6 41.56C25.33 41.56 21.06 45.83 21.06 51.1C21.06 56.37 25.33 60.64 30.6 60.64C35.87 60.64 40.14 56.37 40.14 51.1Z" fill="white"/>
<path d="M46.57 15.96C46.65 17.16 45.88 18.38 46.6 19.52C47.64 21.06 55.96 30.66 55.89 31.51C55.89 31.61 54.52 32.34 54.41 32.72L45.5 22.09L43.4 35.29L44.45 45.6L42.31 46.02C41.94 42.19 41.33 38.33 41.28 34.49L44.44 15.7L46.57 15.97V15.96Z" fill="white"/>
<path d="M27.41 0V3.86L10.25 14.63L1.88 27.01C1.32 27.38 0 26.44 0 25.95C0 24.99 7.61 14.93 8.51 13.16L25.01 2.79C25.6 2.37 25.09 0.19 25.28 0H27.41Z" fill="white"/>
<path d="M33.79 0H35.92C36.03 0.82 35.63 2.18 36.18 2.8L52.42 12.9C53.44 14.57 61.2 25.05 61.2 25.95C61.2 26.44 59.88 27.38 59.32 27.02L50.94 14.64L33.79 3.99V0Z" fill="white"/>
<path d="M16.77 15.7L19.96 34.72C19.7 38.49 19.46 42.35 18.75 46.04L16.75 45.6L17.8 35.29L14.63 15.97L16.76 15.7H16.77Z" fill="white"/>
<path d="M31.67 14.9H29.54V34.32H31.67V14.9Z" fill="white"/>
<path d="M35.92 18.09V23.28C35.92 23.78 36.74 26.12 37.03 26.69C37.67 27.94 38.93 29.19 39.9 30.2L38.41 31.64C37.14 31.86 33.79 25.47 33.79 24.08V18.09H35.92Z" fill="white"/>
<path d="M27.41 18.09V24.08C27.41 25.85 25.08 29.56 23.82 30.87C22.43 32.31 22.53 31.26 21.29 30.2C22.27 29.19 23.53 27.94 24.16 26.69C24.45 26.12 25.27 23.78 25.27 23.28V18.09H27.4H27.41Z" fill="white"/>
<path d="M55.08 37.51L52.02 43.35L50.16 41.5C49.81 41.5 48.72 43.64 48.69 44.16L46.57 43.36L49.23 37.78C49.65 37.47 51.07 39.36 51.49 39.64L52.96 36.72L55.08 37.52V37.51Z" fill="white"/>
<path d="M8.25001 36.71L9.72002 39.63C10.14 39.35 11.55 37.47 11.98 37.77L14.64 43.35L12.52 44.15L11.32 41.49L9.06002 43.23L6.14001 37.64L8.26002 36.71H8.25001Z" fill="white"/>
<path d="M12.8097 21.5015L5.12042 31.4073L6.99258 32.8606L14.6819 22.9547L12.8097 21.5015Z" fill="white"/>
<path d="M37.24 54.79L35.13 54C37.96 49.19 32.44 43.51 27.7 46.71C22.96 49.91 26.03 57.22 31.48 56.34C33.57 56 33.82 53.95 35.66 56.54C28.09 63.59 17.97 51.59 25.96 45.24C32.39 40.14 40.93 47.6 37.24 54.8V54.79Z" fill="white"/>
<path d="M30.6 54.33C32.3894 54.33 33.84 52.8794 33.84 51.09C33.84 49.3006 32.3894 47.85 30.6 47.85C28.8106 47.85 27.36 49.3006 27.36 51.09C27.36 52.8794 28.8106 54.33 30.6 54.33Z" fill="white"/>
</g>
<defs>
<clipPath id="clip0_8_185">
<rect width="61.21" height="62.85" fill="white"/>
</clipPath>
</defs>
</svg>
