<svg width="25" height="33" viewBox="0 0 25 33" fill="none" xmlns="http://www.w3.org/2000/svg">
<path d="M19.9657 0.271908C20.1552 0.46135 20.1851 0.924983 20.0305 1.15929L13.5247 12.0671C13.3403 12.3862 13.3752 12.7202 13.6942 12.9196L23.7645 12.9894C24.1135 13.0542 24.4974 13.453 24.3328 13.812L7.80158 32.9954L11.4857 19.241C11.386 18.9518 10.7529 18.897 10.4787 18.8721C7.53736 18.6278 4.26701 19.0615 1.29078 18.877C0.986678 18.8421 0.85706 18.538 0.827148 18.2639L7.00892 0.750497C7.12857 0.396541 7.31303 0.082467 7.72681 0.0974229C11.4558 0.351673 15.5687 -0.216651 19.2528 0.0974229C19.4672 0.117364 19.8162 0.122349 19.9657 0.271908Z" fill="black"/>
</svg>
